<?xml version="1.0" encoding="UTF-8"?>
<svg width="28px" height="28px" viewBox="0 0 28 28" version="1.1" xmlns="http://www.w3.org/2000/svg" xmlns:xlink="http://www.w3.org/1999/xlink">
    <!-- Generator: Sketch 50.2 (55047) - http://www.bohemiancoding.com/sketch -->
    <title>Filling / 3Scale</title>
    <desc>Created with Sketch.</desc>
    <defs></defs>
    <g id="Filling-/-3Scale" stroke="none" stroke-width="1" fill="none" fill-rule="evenodd">
        <g id="3scale" transform="translate(-5.000000, -5.000000)" fill-rule="nonzero">
            <circle id="Oval" fill="#D71E00" transform="translate(19.000000, 19.000000) rotate(-45.000000) translate(-19.000000, -19.000000) " cx="19" cy="19" r="13.3802817"></circle>
            <path d="M28.4625352,9.53746479 C33.6885491,14.7634787 33.6885491,23.2365213 28.4625352,28.4625352 C23.2365213,33.6885491 14.7634787,33.6885491 9.53746479,28.4625352 L28.4625352,9.53746479 Z" id="Shape" fill="#C21A00"></path>
            <path d="M19.0669014,13.87 C19.3582983,13.8710833 19.6216053,13.6963837 19.7338695,13.4274783 C19.8461337,13.158573 19.7852079,12.8485108 19.5795418,12.6420773 C19.3738757,12.4356438 19.0640426,12.3735636 18.7947209,12.4848255 C18.5253993,12.5960874 18.3497203,12.8587419 18.3497183,13.1501408 C18.3468175,13.3414685 18.4213582,13.5258487 18.5564106,13.661405 C18.691463,13.7969614 18.8755643,13.8721882 19.0669014,13.87 Z M17.2230986,16.1633803 C17.2245445,16.6543301 17.620617,17.0527886 18.1115493,17.0571831 C18.5854772,17.0312218 18.9564637,16.6393568 18.9564637,16.1647183 C18.9564637,15.6900798 18.5854772,15.2982149 18.1115493,15.2722535 C17.6216545,15.2766322 17.2260039,15.6734745 17.2230986,16.1633803 Z M18.2721127,18.81 C18.2676906,18.414986 17.9446651,18.0979251 17.5496373,18.1008649 C17.1546095,18.1038048 16.8363387,18.4256382 16.8377963,18.8206743 C16.8392538,19.2157104 17.1598908,19.5351865 17.5549296,19.5352113 C17.9529289,19.5322658 18.2735977,19.2080074 18.2721127,18.81 Z M14.3516901,13.5542254 C14.7050197,13.5563931 15.0247653,13.3452209 15.1614833,13.0194071 C15.2982013,12.6935932 15.2248899,12.3174864 14.9758134,12.0668724 C14.7267369,11.8162584 14.3510883,11.7406339 14.0244393,11.8753443 C13.6977904,12.0100548 13.4846545,12.3284948 13.4846479,12.681831 C13.4846389,13.1615587 13.8719715,13.5512822 14.3516901,13.5542254 Z M16.4657746,14.7183099 C16.857168,14.6947614 17.1625239,14.3704814 17.1625239,13.9783803 C17.1625239,13.5862792 16.857168,13.2619991 16.4657746,13.2384507 C16.0586431,13.2428184 15.7300783,13.5725736 15.7271831,13.9797183 C15.7397085,14.3823289 16.0631641,14.7057845 16.4657746,14.7183099 Z M16.9367606,12.2269014 C17.4134817,12.2290683 17.8444679,11.9435662 18.0284047,11.5037538 C18.2123414,11.0639413 18.1129279,10.5566174 17.7766004,10.2187542 C17.4402729,9.88089096 16.9334072,9.77916722 16.4927613,9.96109834 C16.0521154,10.1430295 15.7646528,10.5727106 15.7646479,11.0494366 C15.7610663,11.3623668 15.8830598,11.6636764 16.1033412,11.8859695 C16.3236226,12.1082626 16.6238108,12.2329902 16.9367606,12.2322535 L16.9367606,12.2269014 Z M14.391831,18.7323944 C15.4263926,18.7323944 16.2650704,17.8937165 16.2650704,16.8591549 C16.2650704,15.8245934 15.4263926,14.9859155 14.391831,14.9859155 C13.3572694,14.9859155 12.5185915,15.8245934 12.5185915,16.8591549 C12.5185915,17.8937165 13.3572694,18.7323944 14.391831,18.7323944 Z M22.99,16.671831 C22.9841463,16.9790174 23.1034118,17.2753874 23.3204123,17.4928926 C23.5374128,17.7103978 23.8335051,17.8303514 24.1407042,17.8252113 C24.607445,17.8262942 25.0288299,17.5459698 25.2081947,17.1150679 C25.3875596,16.6841661 25.2895429,16.1876384 24.95989,15.8572188 C24.6302371,15.5267993 24.1339384,15.4276295 23.7026211,15.6059929 C23.2713038,15.7843563 22.9900013,16.205089 22.99,16.671831 Z M24.8364789,19.3639437 C24.8379557,19.8187995 25.2076253,20.1864748 25.6624825,20.185491 C26.1173396,20.1845073 26.4854154,19.8152364 26.4849248,19.3603785 C26.4844341,18.9055205 26.1155624,18.5370447 25.6607042,18.5370423 C25.44093,18.5377489 25.2304781,18.6259165 25.0758284,18.7820724 C24.9211788,18.9382284 24.8350552,19.1495251 24.8364789,19.3692958 L24.8364789,19.3639437 Z M25.3957746,14.9243662 C25.8625154,14.9254491 26.2839003,14.6451247 26.4632652,14.2142229 C26.64263,13.783321 26.5446133,13.2867933 26.2149604,12.9563738 C25.8853075,12.6259542 25.3890088,12.5267844 24.9576915,12.7051479 C24.5263742,12.8835113 24.2450717,13.3042439 24.2450704,13.7709859 C24.2429215,14.0770707 24.3633795,14.3712806 24.579568,14.5879718 C24.7957564,14.804663 25.0896857,14.9258041 25.3957746,14.9243662 Z M19.5780282,17.6780282 C19.5795052,18.2171273 20.0174676,18.653095 20.5565679,18.652111 C21.0956681,18.6511271 21.5320362,18.2135635 21.5315452,17.6744625 C21.5310542,17.1353616 21.0938899,16.6985936 20.5547887,16.6985915 C20.295052,16.6978741 20.0457855,16.8009201 19.8623746,16.9848335 C19.6789637,17.1687469 19.5766,17.4182944 19.5780282,17.6780282 Z M20.3380282,11.5070423 C20.8054914,11.5055676 21.1836643,11.1261979 21.183662,10.6587324 C21.1794333,10.1917011 20.8049693,9.81249706 20.3380282,9.80239437 C20.0335222,9.80239437 19.752147,9.96484639 19.599894,10.2285563 C19.447641,10.4922663 19.447641,10.8171703 19.599894,11.0808803 C19.752147,11.3445902 20.0335222,11.5070423 20.3380282,11.5070423 Z M20.2122535,14.2071831 C20.2063818,14.5966915 20.3588936,14.9718951 20.634853,15.2468455 C20.9108123,15.5217958 21.2865721,15.6729323 21.6760563,15.6656338 C22.2699114,15.6688849 22.8071018,15.3136574 23.0366166,14.7659372 C23.2661313,14.218217 23.142655,13.5861461 22.7238839,13.1650698 C22.3051128,12.7439936 21.6737292,12.6170494 21.1247574,12.843554 C20.5757855,13.0700586 20.2176145,13.6052909 20.2176056,14.1991549 L20.2122535,14.2071831 Z M23.3485915,12.443662 C23.6399885,12.4447452 23.9032954,12.2700457 24.0155596,12.0011403 C24.1278238,11.7322349 24.066898,11.4221728 23.8612319,11.2157393 C23.6555658,11.0093058 23.3457327,10.9472256 23.0764111,11.0584875 C22.8070895,11.1697494 22.6314105,11.4324039 22.6314085,11.7238028 C22.6285076,11.9151304 22.7030483,12.0995107 22.8381007,12.235067 C22.9731531,12.3706233 23.1572545,12.4458502 23.3485915,12.443662 Z M17.8492958,22.5056338 C18.2197058,22.5067169 18.5542454,22.2844208 18.6967463,21.942517 C18.8392472,21.6006131 18.7616075,21.2065263 18.5000707,20.9442226 C18.238534,20.6819188 17.8446762,20.6031255 17.5023565,20.7446246 C17.1600369,20.8861237 16.9367621,21.2200109 16.9367606,21.5904225 C16.9382208,22.0942308 17.345494,22.5026982 17.8492958,22.5056338 Z M21.5957746,25.5001408 C21.1190535,25.4979739 20.6880673,25.783476 20.5041305,26.2232885 C20.3201938,26.6631009 20.4196073,27.1704249 20.7559348,27.5082881 C21.0922623,27.8461513 21.599128,27.947875 22.0397739,27.7659439 C22.4804198,27.5840128 22.7678824,27.1543317 22.7678873,26.6776056 C22.770023,26.3669885 22.6484925,26.0682836 22.4301066,25.8473874 C22.2117206,25.6264913 21.9144241,25.5015551 21.6038028,25.5001408 L21.5957746,25.5001408 Z M22.2915493,19.1364789 C21.294812,19.1321452 20.3938077,19.7292299 20.0093663,20.6488542 C19.6249248,21.5684784 19.8329103,22.6291673 20.5361795,23.3355075 C21.2394486,24.0418477 22.2992212,24.254453 23.2205119,23.8740222 C24.1418025,23.4935915 24.7428075,22.5951974 24.7428169,21.5984507 C24.7399077,20.2441189 23.6458555,19.1452892 22.2915493,19.1364789 Z M19.0267606,23.4877465 C18.7353636,23.4866632 18.4720567,23.6613628 18.3597925,23.9302681 C18.2475283,24.1991735 18.3084541,24.5092357 18.5141202,24.7156692 C18.7197863,24.9221027 19.0296194,24.9841829 19.298941,24.872921 C19.5682626,24.7616591 19.7439416,24.4990046 19.7439437,24.2076056 C19.7424881,23.8116851 19.4226729,23.4906766 19.0267606,23.4877465 Z M27.3626761,16.623662 C26.9667637,16.6265921 26.6469485,16.9476006 26.645493,17.3435211 C26.6425921,17.5348487 26.7171328,17.719229 26.8521852,17.8547853 C26.9872376,17.9903417 27.171339,18.0655685 27.3626761,18.0633803 C27.7424992,18.0401897 28.038665,17.7253897 28.038665,17.3448592 C28.038665,16.9643287 27.7424992,16.6495286 27.3626761,16.626338 L27.3626761,16.623662 Z M17.525493,26.0835211 C17.2602978,26.0835202 17.0060032,26.1890514 16.8187331,26.3768236 C16.6314629,26.5645957 16.526613,26.819172 16.5273239,27.0843662 C16.5240863,27.4941018 16.7689885,27.865098 17.1470301,28.0231433 C17.5250717,28.1811886 17.9611534,28.0948869 18.2505012,27.8047634 C18.5398489,27.5146399 18.6249828,27.0783287 18.4659259,26.7007116 C18.306869,26.3230945 17.9352185,26.0791865 17.525493,26.0835211 Z M26.7766197,20.7983099 C26.1854417,20.7983099 25.7061972,21.2775544 25.7061972,21.8687324 C25.7061972,22.4599104 26.1854417,22.9391549 26.7766197,22.9391549 C27.3677978,22.9391549 27.8470423,22.4599104 27.8470423,21.8687324 C27.8470423,21.2775544 27.3677978,20.7983099 26.7766197,20.7983099 Z M25.1709859,23.9507042 C24.7163941,23.9551155 24.35062,24.325671 24.3521127,24.7802817 C24.3454035,25.0011103 24.4299947,25.2149437 24.5859627,25.3714181 C24.7419308,25.5278926 24.9554889,25.6131765 25.176338,25.6071831 C25.633762,25.6071831 26.0045775,25.2363677 26.0045775,24.7789437 C26.0045775,24.3215197 25.633762,23.9507042 25.176338,23.9507042 L25.1709859,23.9507042 Z M13.1929577,23.8169014 C12.5812663,23.8198405 12.0865338,24.315768 12.0850704,24.9274648 C12.0936634,25.536179 12.5842661,26.0279667 13.1929577,26.0380282 C13.806305,26.0380282 14.3035211,25.540812 14.3035211,24.9274648 C14.3035211,24.3141176 13.806305,23.8169014 13.1929577,23.8169014 Z M10.9932394,21.4084507 C10.5498559,21.4084507 10.1904225,21.7678841 10.1904225,22.2112676 C10.1904225,22.6546511 10.5498559,23.0140845 10.9932394,23.0140845 C11.436623,23.0140845 11.7960563,22.6546511 11.7960563,22.2112676 C11.7888942,21.7708848 11.4336222,21.4156128 10.9932394,21.4084507 Z M11.4856338,18.8019718 C11.1609247,18.8019718 10.8681885,18.9975719 10.7439277,19.297564 C10.6196669,19.5975561 10.6883525,19.942862 10.9179565,20.172466 C11.1475606,20.40207 11.4928664,20.4707556 11.7928585,20.3464948 C12.0928506,20.222234 12.2884507,19.9294979 12.2884507,19.6047887 C12.2870281,19.1592054 11.928505,18.7971091 11.4829577,18.7912676 L11.4856338,18.8019718 Z M11.6060563,16.8591549 C11.6031048,16.3810085 11.2136195,15.9955074 10.735468,15.9974721 C10.2573166,15.9994368 9.87101237,16.3881256 9.87199016,16.8662801 C9.87296795,17.3444346 10.2608586,17.7315402 10.7390141,17.7315493 C11.2187327,17.7286062 11.6060654,17.3388826 11.6060563,16.8591549 Z M17.1561972,24.4056338 C17.1474132,23.8492516 16.6930691,23.4032551 16.1366197,23.4047887 C15.8714245,23.4047878 15.6171299,23.510319 15.4298598,23.6980912 C15.2425897,23.8858633 15.1377397,24.1404396 15.1384507,24.4056338 C15.1383566,24.9600181 15.5823295,25.4123229 16.1366197,25.4225352 C16.6950912,25.4139659 17.1461602,24.9640808 17.1561972,24.4056338 Z M15.6709859,21.2559155 C15.6652185,20.5746322 15.1158999,20.0229357 14.4346479,20.0142254 C14.1060407,20.0149343 13.7911741,20.1461533 13.5593156,20.3790156 C13.3274571,20.6118778 13.1975994,20.9273083 13.1983099,21.2559155 C13.1939775,21.5856111 13.322668,21.9031465 13.5553141,22.1367996 C13.7879601,22.3704528 14.1049366,22.5005138 14.4346479,22.4976056 C14.7632551,22.4968967 15.0781217,22.3656776 15.3099802,22.1328154 C15.5418387,21.8999532 15.6716964,21.5845227 15.6709859,21.2559155 Z M11.8040845,14.6701408 C12.0770811,14.6712242 12.3237996,14.5076088 12.4290224,14.2557031 C12.5342451,14.0037974 12.4772116,13.7133026 12.2845565,13.51988 C12.0919014,13.3264574 11.8016358,13.2682693 11.5493137,13.3724896 C11.2969916,13.4767099 11.1323965,13.7227759 11.1323944,13.9957746 C11.1338484,14.3665708 11.4332971,14.6672125 11.8040845,14.6701408 Z" id="Shape" fill="#FFFFFF"></path>
        </g>
    </g>
</svg>