<?xml version="1.0" encoding="UTF-8"?>
<svg width="28px" height="28px" viewBox="0 0 28 28" version="1.1" xmlns="http://www.w3.org/2000/svg" xmlns:xlink="http://www.w3.org/1999/xlink">
    <!-- Generator: Sketch 50.2 (55047) - http://www.bohemiancoding.com/sketch -->
    <title>Filling / Android</title>
    <desc>Created with Sketch.</desc>
    <defs></defs>
    <g id="Filling-/-Android" stroke="none" stroke-width="1" fill="none" fill-rule="evenodd">
        <path d="M10.2812499,6.37500022 C10.3958338,6.48958413 10.5364574,6.54687522 10.7031249,6.54687522 C10.8697924,6.54687522 11.0130201,6.48697998 11.1328124,6.36718772 C11.2526047,6.24739546 11.3124999,6.10416772 11.3124999,5.93750023 C11.3124999,5.77083273 11.2526047,5.62760499 11.1328124,5.50781273 C11.0130201,5.38802047 10.8697924,5.32812523 10.7031249,5.32812523 C10.5364574,5.32812523 10.3958338,5.38802047 10.2812499,5.50781273 C10.166666,5.62760499 10.1093749,5.77083273 10.1093749,5.93750023 C10.1093749,6.10416772 10.166666,6.2499996 10.2812499,6.37500022 Z M16.8593749,6.37500022 C16.9843755,6.48958413 17.1302073,6.54687522 17.2968748,6.54687522 C17.4635423,6.54687522 17.6041659,6.48697998 17.7187498,6.36718772 C17.8333337,6.24739546 17.8906248,6.10416772 17.8906248,5.93750023 C17.8906248,5.77083273 17.8333337,5.62760499 17.7187498,5.50781273 C17.6041659,5.38802047 17.4635423,5.32812523 17.2968748,5.32812523 C17.1302073,5.32812523 16.9869796,5.38802047 16.8671874,5.50781273 C16.7473951,5.62760499 16.6874999,5.77083273 16.6874999,5.93750023 C16.6874999,6.10416772 16.7447909,6.2499996 16.8593749,6.37500022 Z M4.60937498,9.42187519 C5.04687717,9.42187519 5.42187341,9.57812362 5.73437497,9.89062518 C6.04687653,10.2031267 6.20312497,10.578123 6.20312497,11.0156252 L6.20312497,17.7343751 C6.20312497,18.182294 6.04948067,18.5624985 5.74218747,18.8750001 C5.43489427,19.1875016 5.05729388,19.3437501 4.60937498,19.3437501 C4.16145608,19.3437501 3.78125155,19.1875016 3.46874999,18.8750001 C3.15624844,18.5624985 3,18.182294 3,17.7343751 L3,11.0156252 C3,10.578123 3.15624844,10.2031267 3.46874999,9.89062518 C3.78125155,9.57812362 4.16145608,9.42187519 4.60937498,9.42187519 Z M21.1718748,9.71875018 L21.1718748,20.1250001 C21.1718748,20.6041691 21.0052098,21.0104151 20.6718748,21.3437501 C20.3385398,21.6770851 19.9375022,21.8437501 19.4687498,21.8437501 L18.2968748,21.8437501 L18.2968748,25.390625 C18.2968748,25.8385439 18.1406264,26.2187484 17.8281248,26.53125 C17.5156233,26.8437516 17.1354188,27 16.6874999,27 C16.239581,27 15.8593764,26.8437516 15.5468749,26.53125 C15.2343733,26.2187484 15.0781249,25.8385439 15.0781249,25.390625 L15.0781249,21.8437501 L12.9218749,21.8437501 L12.9218749,25.390625 C12.9218749,25.8385439 12.7656265,26.2187484 12.4531249,26.53125 C12.1406233,26.8437516 11.7604188,27 11.3124999,27 C10.8749977,27 10.5000015,26.8437516 10.1874999,26.53125 C9.87499836,26.2187484 9.71874993,25.8385439 9.71874993,25.390625 L9.70312493,21.8437501 L8.54687494,21.8437501 C8.06770588,21.8437501 7.66145995,21.6770851 7.32812495,21.3437501 C6.99478996,21.0104151 6.82812496,20.6041691 6.82812496,20.1250001 L6.82812496,9.71875018 L21.1718748,9.71875018 Z M17.5468748,3.39062525 C18.6614637,3.96354478 19.5520798,4.76301594 20.2187498,5.78906273 C20.8854198,6.81510951 21.2187498,7.93749411 21.2187498,9.15625019 L6.76562496,9.15625019 C6.76562496,7.93749411 7.09895496,6.81510951 7.76562495,5.78906273 C8.43229494,4.76301594 9.32811931,3.96354478 10.4531249,3.39062525 L9.34374993,1.34375027 C9.2708329,1.20833293 9.29687431,1.10416731 9.42187493,1.03125028 C9.55729227,0.968749966 9.6614579,0.999999653 9.73437493,1.12500028 L10.8593749,3.18750025 C11.8489632,2.74999807 12.8958277,2.53125026 13.9999999,2.53125026 C15.1041721,2.53125026 16.1510366,2.74999807 17.1406248,3.18750025 L18.2656248,1.12500028 C18.3385419,0.999999653 18.4427075,0.968749966 18.5781248,1.03125028 C18.7031255,1.10416731 18.7291669,1.20833293 18.6562498,1.34375027 L17.5468748,3.39062525 Z M24.9999998,11.0156252 L24.9999998,17.7343751 C24.9999998,18.182294 24.8437513,18.5624985 24.5312498,18.8750001 C24.2187482,19.1875016 23.8385437,19.3437501 23.3906248,19.3437501 C22.9531226,19.3437501 22.5781264,19.1875016 22.2656248,18.8750001 C21.9531232,18.5624985 21.7968748,18.182294 21.7968748,17.7343751 L21.7968748,11.0156252 C21.7968748,10.5677063 21.9531232,10.1901059 22.2656248,9.88281268 C22.5781264,9.57551948 22.9531226,9.42187519 23.3906248,9.42187519 C23.8385437,9.42187519 24.2187482,9.57551948 24.5312498,9.88281268 C24.8437513,10.1901059 24.9999998,10.5677063 24.9999998,11.0156252 Z" id="" fill="#292E34"></path>
    </g>
</svg>