<?xml version="1.0" encoding="UTF-8"?>
<svg width="28px" height="28px" viewBox="0 0 28 28" version="1.1" xmlns="http://www.w3.org/2000/svg" xmlns:xlink="http://www.w3.org/1999/xlink">
    <!-- Generator: Sketch 50.2 (55047) - http://www.bohemiancoding.com/sketch -->
    <title>Filling / Apple</title>
    <desc>Created with Sketch.</desc>
    <defs></defs>
    <g id="Filling-/-Apple" stroke="none" stroke-width="1" fill="none" fill-rule="evenodd">
        <path d="M24.765625,19.984375 C24.359373,21.2864648 23.7187544,22.5885352 22.84375,23.890625 C21.4999933,25.9323019 20.161465,26.953125 18.828125,26.953125 C18.3177058,26.953125 17.5885464,26.78646 16.640625,26.453125 C15.7447872,26.11979 14.9583367,25.953125 14.28125,25.953125 C13.6458302,25.953125 12.9062542,26.1249983 12.0625,26.46875 C11.2187458,26.8229184 10.5312527,27 10,27 C8.41665875,27 6.84896609,25.6510552 5.296875,22.953125 C3.76561734,20.2343614 3,17.6145959 3,15.09375 C3,12.7187381 3.58853578,10.7708409 4.765625,9.25 C5.9322975,7.7499925 7.41144938,7 9.203125,7 C9.95312875,7 10.8749945,7.15624844 11.96875,7.46875 C13.0520887,7.78125156 13.7708316,7.9375 14.125,7.9375 C14.5937523,7.9375 15.3385366,7.76041844 16.359375,7.40625 C17.4218803,7.05208156 18.322913,6.875 19.0625,6.875 C20.3020895,6.875 21.4114534,7.21353828 22.390625,7.890625 C22.9322944,8.26562687 23.4739556,8.786455 24.015625,9.453125 C23.1927042,10.1510452 22.5989602,10.7656223 22.234375,11.296875 C21.5572883,12.2760466 21.21875,13.3541608 21.21875,14.53125 C21.21875,15.8229231 21.5781214,16.9843698 22.296875,18.015625 C23.0156286,19.0468802 23.838537,19.7031236 24.765625,19.984375 Z M18.890625,1.65625 C18.890625,2.29166984 18.7395848,2.99999609 18.4375,3.78125 C18.1249984,4.56250391 17.6406283,5.28124672 16.984375,5.9375 C16.4218722,6.50000281 15.8593778,6.87499906 15.296875,7.0625 C14.9114564,7.17708391 14.3697952,7.26562469 13.671875,7.328125 C13.7031252,5.77603391 14.1093711,4.43750563 14.890625,3.3125 C15.6614622,2.19791109 16.9635325,1.42708547 18.796875,1 C18.8072917,1.03125016 18.8203124,1.08854125 18.8359375,1.171875 C18.8515626,1.25520875 18.8645833,1.31249984 18.875,1.34375 C18.875,1.38541687 18.8776041,1.43749969 18.8828125,1.5 C18.8880209,1.56250031 18.890625,1.61458313 18.890625,1.65625 Z" id="" fill="#292E34"></path>
    </g>
</svg>