<?xml version="1.0" encoding="UTF-8"?>
<svg width="28px" height="28px" viewBox="0 0 28 28" version="1.1" xmlns="http://www.w3.org/2000/svg" xmlns:xlink="http://www.w3.org/1999/xlink">
    <!-- Generator: Sketch 50.2 (55047) - http://www.bohemiancoding.com/sketch -->
    <title>Filling / External</title>
    <desc>Created with Sketch.</desc>
    <defs></defs>
    <g id="Filling-/-External" stroke="none" stroke-width="1" fill="none" fill-rule="evenodd">
        <path d="M27,14 C27,21.1797017 21.1797017,27 14,27 C6.82029825,27 1,21.1797017 1,14 C1,6.82029825 6.82029825,1 14,1 C21.1797017,1 27,6.82029825 27,14 Z M1.34210526,14 C1.34210526,16.3605263 1.99210526,18.55 3.12105263,20.4315789 L3.29210526,17.3526316 C1.85526316,15.3342105 1.51315789,14.4789474 1.47894737,12.0842105 C1.37631579,12.7 1.34210526,13.35 1.34210526,14 Z M4.31842105,5.85789474 L6.02894737,5.27631579 C7.15789474,3.80526316 9.41578947,2.06052632 11.7078947,2.06052632 C10.8184211,2.33421053 8.25263158,3.56578947 8.04736842,4.35263158 C9.00526316,3.73684211 9.79210526,3.63421053 10.75,3.63421053 L12.8368421,2.47105263 L12.1526316,1.47894737 C9.00526316,1.92368421 6.26842105,3.53157895 4.31842105,5.85789474 Z M5.99473684,14.0342105 C5.99473684,14.7868421 6.74736842,16.3605263 7.63684211,16.3605263 L9.82631579,16.3605263 L10.1,16.8052632 C10.7842105,16.8052632 10.7842105,17.2842105 10.7842105,17.9 C10.7842105,18.7210526 11.8105263,18.8578947 11.8105263,20.1578947 C11.8105263,20.5 11.4,20.6368421 11.4,21.1842105 C11.4,21.6631579 12.6657895,24.1263158 13.4526316,24.1263158 C14.8210526,24.1263158 16.3263158,22.8947368 16.3263158,22.3473684 C16.3263158,21.0473684 17.4894737,21.3894737 17.4894737,20.5 C17.4894737,16.4631579 19.1315789,18.3789474 19.7473684,14.8894737 L18.3447368,15.4368421 C16.8394737,14.1710526 15.95,12.3236842 15.95,11.6394737 C16.3947368,11.6394737 17.7631579,13.6921053 18.2421053,14.9236842 C19.4052632,14.4447368 20.6026316,13.5894737 20.9105263,12.3578947 L20.2947368,12.0842105 L20.0894737,11.6736842 L19.6105263,12.2894737 C19.4394737,12.2894737 18.6526316,11.7078947 18.4131579,10.8868421 C19.5078947,11.6052632 20.0210526,11.6052632 21.9368421,11.6052632 C22.8263158,11.6052632 23.3394737,14.1710526 24.1947368,14.6157895 C24.1947368,13.2131579 24.2973684,12.0842105 24.8105263,10.9552632 C25.2894737,10.9552632 26.0763158,11.7421053 26.6236842,13.2815789 C26.3157895,7.67105263 22.3473684,3.01842105 17.0447368,1.71842105 L17.8315789,2.36842105 L16.9763158,2.36842105 C16.9763158,4.18157895 16.4289474,3.56578947 15.1973684,4.93421053 C15.1973684,4.59210526 15.1973684,4.45526316 15.4710526,4.28421053 C14.9578947,3.97631579 14.4789474,3.87368421 14.1368421,3.87368421 C13.6236842,3.87368421 12.2210526,4.76315789 11.8105263,5.65263158 L12.5289474,5.58421053 L12.8026316,6.2 C13.4184211,5.82368421 13.2131579,4.59210526 14.1368421,4.59210526 C14.1368421,4.86578947 13.7605263,4.96842105 13.7605263,5.44736842 L14.6157895,5.41315789 C13.8289474,6.30263158 13.4184211,6.50789474 12.3578947,6.50789474 L12.1868421,5.96052632 C11.8789474,6.74736842 10.9552632,7.15789474 10.2026316,7.22631579 C10.2026316,7.63684211 10.1684211,7.87631579 9.92894737,8.25263158 L9.03947368,8.08157895 L8.45789474,9.38157895 L9.58684211,9.62105263 C10.1,8.8 10.7157895,8.35526316 11.5710526,8.18421053 L12.6657895,9.38157895 C12.6657895,9.51842105 12.4605263,9.62105263 11.9815789,9.62105263 L12.3921053,9.89473684 L13.0078947,9.14210526 C12.4605263,8.83421053 12.2552632,8.49210526 12.2552632,8.08157895 C13.5552632,8.45789474 13.2473684,9.79210526 13.8289474,9.89473684 C13.8289474,8.35526316 14.8894737,9.75789474 14.8894737,7.91052632 C15.6421053,7.91052632 16.9421053,8.35526316 16.9421053,8.90263158 C14.9921053,8.90263158 14.4447368,8.97105263 14.4447368,9.58684211 C14.4447368,9.89473684 16.1210526,9.41578947 16.1210526,11.0236842 C14.7526316,11.0236842 14.1368421,11.0236842 13.3842105,10.6131579 L13.1447368,11.2973684 C12.3236842,11.0578947 11.4684211,10.6131579 11.4684211,9.65526316 L9.48421053,9.96315789 L8.93684211,9.62105263 C7.56842105,11.3315789 5.99473684,11.1263158 5.99473684,14.0342105 Z M9.62105263,6.61052632 L10.1342105,6.50789474 L10.3736842,6.02894737 C9.89473684,6.02894737 9.65526316,6.33684211 9.62105263,6.61052632 Z M9.92894737,6.98684211 L11.0236842,6.81578947 L10.8526316,5.48157895 C10.2026316,5.82368421 10.9552632,6.33684211 9.92894737,6.98684211 Z M9.99736842,4.52368421 C10.4421053,4.52368421 10.8184211,4.45526316 10.8184211,4.14736842 L10.1684211,4.01052632 L9.99736842,4.52368421 Z M17.7973684,22.6210526 C18.6184211,22.6210526 19.4394737,21.3552632 19.4394737,19.9868421 L18.1394737,21.0815789 L17.7973684,22.6210526 Z" id="Combined-Shape" fill="#292E34" fill-rule="nonzero"></path>
    </g>
</svg>