<?xml version="1.0" encoding="UTF-8"?>
<svg width="28px" height="28px" viewBox="0 0 28 28" version="1.1" xmlns="http://www.w3.org/2000/svg" xmlns:xlink="http://www.w3.org/1999/xlink">
    <!-- Generator: Sketch 50.2 (55047) - http://www.bohemiancoding.com/sketch -->
    <title>Filling / Jenkins</title>
    <desc>Created with Sketch.</desc>
    <defs>
        <rect id="path-1" x="0" y="-1" width="28" height="28"></rect>
    </defs>
    <g id="Filling-/-Jenkins" stroke="none" stroke-width="1" fill="none" fill-rule="evenodd">
        <mask id="mask-2" fill="white">
            <use xlink:href="#path-1"></use>
        </mask>
        <g id="Mask"></g>
        <g id="jenkins" mask="url(#mask-2)" fill-rule="nonzero">
            <g transform="translate(0.823529, -0.176471)" id="Shape">
                <polyline fill="#F0D6B7" points="18.9082353 21.42 16.6352941 21.7576471 13.5635294 22.1035294 11.5788235 22.1611765 9.64352941 22.1035294 8.16117647 21.6505882 6.85176471 20.2258824 5.83058824 17.3270588 5.6 16.7011765 4.24117647 16.2482353 3.44235294 14.9388235 2.87411765 13.0611765 3.5 11.4141176 4.97411765 10.8952941 6.17647059 11.4635294 6.74470588 12.7152941 7.42 12.6082353 7.65058824 12.32 7.42 11.0105882 7.37058824 9.36352941 7.70823529 7.09058824 7.69176471 5.78941176 8.72941176 4.13411765 10.5494118 2.82470588 13.7364706 1.45764706 17.2611765 1.96823529 20.3329412 4.18352941 21.7576471 6.46470588 22.6635294 8.11176471 22.8941176 12.2047059 22.2105882 15.7294118 20.9588235 18.8588235 19.7647059 20.5058824"></polyline>
                <polyline fill="#335061" points="16.9811765 31.2611765 8.84470588 31.5988235 8.84470588 32.9658824 9.52823529 37.7423529 9.19058824 38.1376471 3.5 36.2023529 3.10470588 35.5270588 2.53647059 29.0952941 1.22705882 25.2329412 0.938823529 24.3188235 5.49294118 21.1894118 6.90941176 20.6211765 8.16117647 22.1611765 9.24 23.1247059 10.4917647 23.52 11.06 23.6929412 11.7435294 26.6494118 12.2541176 27.2752941 13.5635294 26.8223529 12.6576471 28.5847059 17.6070588 30.9152941 16.9811765 31.2611765"></polyline>
                <polyline fill="#6D6B6D" points="3.5 11.4141176 4.97411765 10.8952941 6.17647059 11.4635294 6.74470588 12.7152941 7.42 12.6082353 7.59294118 11.9247059 7.25529412 10.6152941 7.59294118 7.48588235 7.31294118 5.78117647 8.33411765 4.58705882 10.5494118 2.82470588 9.92352941 1.96823529 6.79411765 3.50823529 5.49294118 4.52941176 4.75176471 6.11882353 3.61529412 7.65882353 3.26941176 9.47882353 3.5 11.4141176"></polyline>
                <path d="M5.83058824,6.06117647 C5.83058824,6.06117647 6.68705882,3.95294118 10.0964706,2.93176471 C13.5058824,1.91058824 10.2694118,2.19058824 10.2694118,2.19058824 L6.57176471,3.61529412 L5.14705882,5.04 L4.52117647,6.17647059 L5.83058824,6.06117647 M4.12588235,11.0105882 C4.12588235,11.0105882 2.93176471,7.03294118 7.47764706,6.46470588 L7.31294118,5.78117647 L4.18352941,6.52235294 L3.26941176,9.47882353 L3.5,11.4141176 L4.12588235,11.0105882" fill="#DCD9D8"></path>
                <path d="M5.94588235,16.2976471 L6.68705882,15.5729412 C6.68705882,15.5729412 7.02470588,15.6141176 7.08235294,16.0094118 C7.14,16.4047059 7.31294118,19.9870588 9.75882353,21.9223529 C9.98117647,22.0952941 7.93882353,21.6341176 7.93882353,21.6341176 L6.11882353,18.7929412 M16.4129412,15.2188235 C16.4129412,15.2188235 16.5447059,13.4976471 17.0058824,13.6294118 C17.4670588,13.7611765 17.4670588,14.2223529 17.4670588,14.2223529 C17.4670588,14.2223529 16.3470588,14.9552941 16.4129412,15.2188235 M21.1317647,8.91058824 C21.1317647,8.91058824 20.1929412,9.10823529 20.1105882,9.93176471 C20.0282353,10.7552941 21.1317647,10.1047059 21.3047059,10.0470588 M14.2470588,8.96823529 C14.2470588,8.96823529 12.9952941,9.14117647 12.9952941,9.93176471 C12.9952941,10.7305882 14.42,10.6729412 14.8152941,10.3270588 M6.51411765,12.6576471 C6.51411765,12.6576471 4.35647059,11.3482353 4.12588235,12.6 C3.89529412,13.8517647 3.38470588,14.7576471 4.46352941,16.0670588 L3.72235294,15.8364706 L3.04705882,14.0823529 L2.81647059,12.3776471 L4.12588235,11.0105882 L5.60823529,11.1258824 L6.46470588,11.8094118 L6.51411765,12.6576471 M7.53529412,9.07529412 C7.53529412,9.07529412 8.49882353,4.06823529 13.3905882,3.10470588 C17.4176471,2.30588235 19.5341176,3.27764706 20.3329412,4.18352941 C20.3329412,4.18352941 16.7505882,-0.0823529412 13.3411765,1.22705882 C9.93176471,2.53647059 7.42823529,4.92470588 7.48588235,6.45647059 C7.57647059,9.07529412 7.53529412,9.07529412 7.53529412,9.07529412 M20.7282353,4.76 C20.7282353,4.76 19.0811765,4.70235294 19.0235294,6.18470588 C19.0235294,6.18470588 19.0235294,6.41529412 19.1388235,6.63764706 C19.1388235,6.63764706 20.4482353,5.15529412 21.2470588,5.95411765" fill="#F7E4CD"></path>
                <path d="M13.5058824,6.78588235 C13.5058824,6.78588235 13.2258824,4.51294118 11.2905882,5.83882353 C10.0388235,6.69529412 10.1541176,7.88941176 10.3847059,8.11176471 C10.6152941,8.34235294 10.5494118,8.79529412 10.7223529,8.48235294 C10.8952941,8.16941176 10.8376471,7.14823529 11.4635294,6.86 C12.0894118,6.58 13.1105882,6.25882353 13.5058824,6.78588235" fill="#F7E4CD"></path>
                <path d="M8.16117647,22.1611765 L2.81647059,24.5494118 C2.81647059,24.5494118 5.03176471,33.3611765 3.89529412,36.0952941 L3.09647059,35.8070588 L3.04705882,32.4552941 L1.56470588,26.0894118 L0.938823529,24.3270588 L6.51411765,20.5717647 L8.16117647,22.1611765 M8.71294118,27.0364706 L9.47058824,27.9588235 L9.47058824,31.3682353 L8.56470588,31.3682353 C8.56470588,31.3682353 8.44941176,28.98 8.44941176,28.6917647 C8.44941176,28.4035294 8.56470588,27.3823529 8.56470588,27.3823529" fill="#49728B"></path>
                <path d="M18.06,31.3188235 L21.2470588,31.1458824 C21.2470588,31.1458824 22.5564706,27.8435294 22.5564706,27.6788235 C22.5564706,27.5141176 23.6929412,22.9023529 23.6929412,22.9023529 L21.1317647,20.2258824 L20.6211765,19.7729412 L19.2541176,21.14 L19.2541176,26.4270588 L18.06,31.3188235" fill="#335061"></path>
                <polyline fill="#49728B" points="19.5341176 20.9670588 23.52 23.9235294 23.6352941 22.5564706 20.6211765 19.7729412 19.5341176 20.9670588"></polyline>
                <path d="M17.9282353,30.8576471 L16.6764706,27.6705882 L15.3670588,25.7929412 C15.3670588,25.7929412 15.6552941,24.9941176 16.0505882,24.9941176 L17.36,24.9941176 L18.6117647,25.4470588 L18.4964706,27.5552941 L17.9282353,30.8576471" fill="#FFFFFF"></path>
                <path d="M18.1752941,29.7788235 C18.1752941,29.7788235 16.5858824,26.7070588 16.5858824,26.2541176 C16.5858824,26.2541176 16.8741176,25.5705882 17.2694118,25.7435294 C17.6647059,25.9164706 18.5211765,26.3694118 18.5211765,26.3694118 L18.5211765,25.2905882 L16.5858824,24.8952941 L15.2764706,25.0682353 L17.4917647,30.2976471 L17.9447059,30.3552941" fill="#DCD9D8"></path>
                <polyline fill="#FFFFFF" points="11.2164706 22.2764706 9.64352941 22.1035294 8.16117647 21.6505882 8.16117647 22.1611765 8.88588235 22.9517647 11.1588235 23.9811765"></polyline>
                <path d="M8.67176471,22.4411765 C8.67176471,22.4411765 10.4341176,23.1823529 11.0023529,23.0094118 L11.06,23.6929412 L9.47058824,23.3552941 L8.50705882,22.6717647 L8.67176471,22.4411765" fill="#DCD9D8"></path>
                <path d="M20.1929412,25.2 C19.2294118,25.1752941 18.3564706,25.06 17.5905882,24.8376471 C17.64,24.5247059 17.5494118,24.22 17.6235294,23.9894118 C17.8376471,23.8329412 18.1917647,23.8411765 18.5129412,23.8 C18.2329412,23.66 17.8458824,23.6105882 17.5247059,23.6847059 C17.5164706,23.4705882 17.4176471,23.3305882 17.36,23.1658824 C17.9035294,22.9682353 19.18,21.7 19.9047059,22.12 C20.2505882,22.3176471 20.3905882,23.4623529 20.4235294,24.0141176 C20.4482353,24.4917647 20.3823529,24.9529412 20.1929412,25.2 M15.5811765,23.6188235 L15.5729412,23.8411765 C15.2682353,24.0388235 14.7823529,24.0388235 14.4529412,24.2035294 C14.9388235,24.2282353 15.3258824,24.3435294 15.6552941,24.5082353 L15.6305882,25.06 C15.0788235,25.4388235 14.5764706,25.9988235 13.9258824,26.3529412 C13.6211765,26.5176471 12.5423529,26.9541176 12.2129412,26.8717647 C12.0317647,26.8305882 12.0152941,26.6 11.9411765,26.3858824 C11.7847059,25.9247059 11.4223529,25.1835294 11.3894118,24.4835294 C11.3482353,23.6023529 11.2576471,22.1282353 12.2129412,22.3094118 C12.9788235,22.4576471 13.8682353,22.8117647 14.4611765,23.1329412 C14.8235294,23.3305882 15.0294118,23.5776471 15.5811765,23.6188235 M16.1329412,24.6729412 C16.0505882,24.1952941 15.9517647,24.0552941 15.9929412,23.6352941 C17.2694118,22.7788235 17.5082353,25.1011765 16.1329412,24.6729412" fill="#D33833"></path>
                <path d="M16.4541176,25.1341176 C16.3141176,25.1341176 16.1658824,25.1094118 16.0094118,25.06 L15.7705882,24.9858824 L15.7294118,24.7388235 C15.7047059,24.5988235 15.68,24.4835294 15.6552941,24.3847059 C15.5976471,24.1458824 15.5482353,23.94 15.5811765,23.5941176 L15.5976471,23.3964706 L15.7623529,23.2894118 C16.52,22.7870588 17.0141176,23.1494118 17.1458824,23.2811765 C17.5,23.6188235 17.5823529,24.22 17.3270588,24.6564706 C17.1376471,24.9694118 16.8329412,25.1341176 16.4541176,25.1341176 Z M16.3964706,23.8823529 C16.4047059,23.9811765 16.4211765,24.0717647 16.4541176,24.2035294 L16.4788235,24.3188235 L16.6105882,24.2447059 C16.6764706,24.1376471 16.6435294,23.9482353 16.5776471,23.8905882 C16.5447059,23.8411765 16.4705882,23.8494118 16.3964706,23.8823529 Z" fill="#D33833"></path>
                <path d="M17.9858824,25.06 C17.9858824,25.06 17.5905882,24.4917647 17.8705882,24.3188235 C18.1588235,24.1458824 18.4388235,24.3188235 18.6117647,24.0305882 C18.7847059,23.7423529 18.6117647,23.5776471 18.6694118,23.2317647 C18.7270588,22.8858824 19.0070588,22.8364706 19.2952941,22.7788235 C19.5835294,22.7211765 20.3741176,22.6058824 20.4894118,22.8941176 L20.1517647,21.8729412 L19.4682353,21.6423529 L17.3105882,22.8941176 L17.1952941,23.52 L17.1952941,24.7717647 M12.0152941,26.9376471 C11.9494118,26.0482353 11.8752941,25.1670588 11.7929412,24.2776471 C11.6694118,22.9517647 12.1141176,23.1823529 13.2588235,23.1823529 C13.4317647,23.1823529 14.3376471,23.3882353 14.4035294,23.52 C14.7164706,24.1541176 13.8847059,24.0141176 14.7576471,24.4917647 C15.4988235,24.8952941 16.8,24.2447059 16.5035294,23.3470588 C16.3388235,23.1494118 15.6305882,23.2811765 15.3835294,23.1576471 L14.0494118,22.4658824 C13.4811765,22.1694118 12.18,21.7411765 11.5788235,22.1529412 C10.0552941,23.1905882 11.6776471,25.7847059 12.2211765,26.8717647" fill="#EF3D3A"></path>
                <path d="M13.5058824,6.78588235 C11.9576471,6.42352941 11.1835294,7.43647059 10.7141176,8.48235294 C10.2941176,8.38352941 10.4588235,7.80705882 10.5658824,7.51882353 C10.8458824,6.75294118 11.9576471,5.74 12.8717647,5.88 C13.2752941,5.93764706 13.8105882,6.3 13.5058824,6.78588235 M21.0658824,8.54823529 L21.14,8.54823529 C21.4941176,9.27294118 21.7905882,10.0470588 22.2352941,10.6894118 C21.9388235,11.3811765 19.9952941,11.9905882 20.02,10.7470588 C20.44,10.5658824 21.1647059,10.7058824 21.5435294,10.4752941 C21.3211765,9.89058824 21.0164706,9.38823529 21.0658824,8.54823529 M14.3047059,8.57294118 C14.6341176,9.18235294 14.7411765,9.82470588 15.2188235,10.2858824 C15.4329412,10.4917647 15.8447059,10.7470588 15.6388235,11.3235294 C15.5894118,11.4635294 15.2435294,11.76 15.0376471,11.8258824 C14.2964706,12.04 12.5752941,11.8670588 13.16,10.9529412 C13.7694118,10.9776471 14.5929412,11.3482353 15.0458824,10.9035294 C14.7,10.3352941 14.0741176,9.22352941 14.3047059,8.57294118 M20.7858824,14.7658824 C19.6741176,15.4823529 18.4305882,16.2564706 16.6105882,16.0752941 C16.2235294,15.7376471 16.0752941,14.98 16.4541176,14.4858824 C16.6517647,14.8235294 16.5282353,15.4494118 17.08,15.54 C18.1176471,15.7129412 19.32,14.9058824 20.0611765,14.6258824 C20.5223529,13.8517647 20.02,13.5635294 19.6082353,13.0611765 C18.76,12.04 17.6152941,10.7635294 17.6564706,9.23176471 C18.0023529,8.98470588 18.0270588,9.61058824 18.0764706,9.72588235 C18.5211765,10.7635294 19.6411765,12.0976471 20.4564706,12.9870588 C20.6541176,13.2094118 20.9835294,13.4152941 21.0247059,13.5635294 C21.1235294,13.9752941 20.7447059,14.4858824 20.7858824,14.7658824 M6.12705882,14.0082353 C5.78117647,13.8105882 5.69882353,12.9294118 5.28705882,12.9047059 C4.70235294,12.8717647 4.80941176,14.0411765 4.80941176,14.7247059 C4.40588235,14.3623529 4.34,13.2341176 4.62823529,12.6576471 C4.29058824,12.4929412 4.14235294,12.8388235 3.95294118,12.9623529 C4.2,11.2247059 6.50588235,12.1635294 6.12705882,14.0082353 M21.4941176,15.4905882 C20.9752941,16.4788235 20.2423529,17.5576471 18.7270588,17.5905882 C18.6941176,17.2694118 18.6694118,16.7917647 18.7270588,16.5941176 C19.8882353,16.4870588 20.6047059,15.8941176 21.4941176,15.4905882 M14.2141176,16.1329412 C15.1858824,16.6435294 16.9647059,16.7011765 18.2823529,16.66 C18.3564706,16.9482353 18.3482353,17.3023529 18.3564706,17.6564706 C16.66,17.7388235 14.6588235,17.3188235 14.2141176,16.1329412 M14.0329412,17.08 C14.7,18.76 17.0058824,18.5705882 18.9494118,18.5211765 C18.8670588,18.7435294 18.6776471,18.9988235 18.4470588,19.0894118 C17.8211765,19.3447059 16.1082353,19.5341176 15.2435294,19.0729412 C14.6917647,18.7847059 14.3458824,18.1258824 14.0411765,17.7388235 C13.9011765,17.5576471 13.1764706,17.08 14.0329412,17.08" fill="#231F20"></path>
                <path d="M20.7035294,26.3611765 C19.9211765,27.7117647 19.1635294,29.0870588 18.2329412,30.2811765 C18.62,29.1282353 18.7929412,27.2094118 18.8505882,25.7435294 C19.6658824,25.3482353 20.3658824,25.8176471 20.7035294,26.3611765" fill="#81B0C4"></path>
                <path d="M17.8870588,22.0870588 C17.4835294,22.3505882 17.1376471,22.68 16.7505882,22.96 C15.8858824,23.0011765 15.4164706,22.9023529 14.7823529,22.4082353 L14.8564706,22.3341176 C15.7788235,22.7541176 16.9564706,22.1694118 17.8870588,22.0870588" fill="#F0D6B7"></path>
                <path d="M13.0447059,28.3788235 C13.3,27.2835294 14.2882353,26.7070588 15.1941176,26.1058824 C16.1247059,27.2917647 16.6929412,28.8070588 17.3188235,30.2729412 C15.8364706,29.8282353 14.3294118,29.1117647 13.0447059,28.3788235" fill="#81B0C4"></path>
                <path d="M18.2247059,37.1576471 C18.1835294,38.0552941 18.3152941,39.4964706 18.3564706,40.4435294 C18.9576471,40.4435294 19.2129412,40.3117647 19.6576471,40.1635294 C19.7070588,39.0517647 19.3035294,38.0305882 19.1882353,37.0176471 C18.9494118,36.9517647 18.5211765,37.1823529 18.2247059,37.1576471 Z M8.92705882,32.0517647 C9.32235294,35.6752941 9.89058824,38.7141176 10.9364706,41.9258824 C13.2588235,42.6341176 16.0588235,42.6917647 18.1094118,42.0576471 C17.7305882,40.2458824 17.8952941,38.0470588 17.6729412,36.1117647 C17.5082353,34.6623529 17.5905882,33.1964706 17.36,31.7223529 C14.8811765,31.1952941 11.3647059,31.5905882 8.92705882,32.0517647 Z M17.9529412,31.7388235 C17.9282353,33.2952941 18.0188235,34.8270588 18.1423529,36.3835294 C18.7435294,36.2929412 19.1470588,36.2352941 19.6988235,36.1117647 C19.5176471,34.6129412 19.5423529,32.9247059 19.1717647,31.5988235 C18.7517647,31.6070588 18.3811765,31.5988235 17.9529412,31.7388235 Z M20.9835294,31.4835294 C20.7035294,31.4176471 20.3741176,31.4835294 20.1023529,31.4835294 C20.2258824,32.7517647 20.5388235,34.1517647 20.6458824,35.4776471 C21.0741176,35.4941176 21.2964706,35.2882353 21.6505882,35.2223529 C21.6670588,34.0611765 21.5435294,32.4552941 20.9835294,31.4835294 Z M25.5705882,35.6752941 C26.46,35.4611765 27.02,34.3741176 26.7647059,33.2541176 C26.6,32.5047059 26.3035294,31.0882353 25.9823529,30.6105882 C25.7435294,30.2564706 25.1094118,29.7870588 24.5988235,30.1164706 C23.7752941,30.6435294 22.3176471,30.8 21.7164706,31.4423529 C22.0211765,32.4470588 22.1117647,33.8305882 22.2352941,35.1070588 C23.2647059,35.1729412 24.5411765,34.8188235 25.3976471,35.1894118 C24.7964706,35.3870588 24.0223529,35.3870588 23.5035294,35.6670588 C23.9317647,35.8729412 24.9282353,35.8317647 25.5705882,35.6752941 Z M17.3105882,30.2729412 C16.6847059,28.8070588 16.1164706,27.2835294 15.1858824,26.1058824 C14.28,26.7070588 13.2917647,27.2835294 13.0364706,28.3788235 C14.3294118,29.1117647 15.8364706,29.8282353 17.3105882,30.2729412 Z M18.8505882,25.7352941 C18.7929412,27.2011765 18.6282353,29.1282353 18.2329412,30.2729412 C19.1635294,29.0870588 19.9211765,27.7035294 20.7035294,26.3529412 C20.3658824,25.8176471 19.6658824,25.3482353 18.8505882,25.7352941 Z M17.1047059,25.1176471 C16.7505882,25.0764706 16.4541176,25.5211765 15.9929412,25.3317647 C15.8858824,25.4470588 15.7952941,25.5705882 15.6882353,25.6858824 C16.7011765,26.9129412 17.1623529,28.6423529 17.9447059,30.0835294 C18.3647059,28.7 18.3152941,27.1929412 18.4058824,25.6858824 C17.8294118,25.7188235 17.5164706,25.1588235 17.1047059,25.1176471 Z M15.9847059,23.6352941 C15.9435294,24.0552941 16.0423529,24.1870588 16.1247059,24.6729412 C17.5082353,25.1011765 17.2694118,22.7788235 15.9847059,23.6352941 Z M14.4611765,23.1329412 C13.8682353,22.8117647 12.9788235,22.4576471 12.2129412,22.3094118 C11.2658824,22.1282353 11.3482353,23.6023529 11.3894118,24.4835294 C11.4223529,25.1835294 11.7847059,25.9164706 11.9411765,26.3858824 C12.0152941,26.6 12.0317647,26.8305882 12.2129412,26.8717647 C12.5423529,26.9458824 13.6211765,26.5176471 13.9258824,26.3529412 C14.5764706,25.9988235 15.0788235,25.4388235 15.6305882,25.06 L15.6552941,24.5082353 C15.3258824,24.3435294 14.9388235,24.2282353 14.4529412,24.2035294 C14.7823529,24.0388235 15.2682353,24.0388235 15.5729412,23.8411765 L15.5811765,23.6188235 C15.0294118,23.5776471 14.8235294,23.3305882 14.4611765,23.1329412 Z M8.79529412,22.1035294 C8.30117647,22.6058824 10.1788235,23.2811765 10.7717647,23.3223529 C10.7717647,23.0094118 10.9529412,22.7047059 10.9117647,22.4823529 C10.2035294,22.3588235 9.27294118,22.4411765 8.79529412,22.1035294 Z M14.8564706,22.3423529 L14.7823529,22.4164706 C15.4164706,22.9105882 15.8858824,23.0176471 16.7505882,22.9682353 C17.1376471,22.6882353 17.4835294,22.3588235 17.8870588,22.0952941 C16.9564706,22.1694118 15.7788235,22.7541176 14.8564706,22.3423529 Z M20.4235294,24.0305882 C20.3988235,23.4788235 20.2505882,22.3341176 19.9047059,22.1364706 C19.1882353,21.7164706 17.9035294,22.9847059 17.36,23.1823529 C17.4176471,23.3552941 17.5164706,23.4870588 17.5247059,23.7011765 C17.8458824,23.6188235 18.2329412,23.6764706 18.5129412,23.8164706 C18.1917647,23.8494118 17.8376471,23.8494118 17.6235294,24.0058824 C17.5494118,24.2282353 17.64,24.5411765 17.5905882,24.8541176 C18.3564706,25.0682353 19.2294118,25.1835294 20.1929412,25.2164706 C20.3823529,24.9529412 20.4482353,24.4917647 20.4235294,24.0305882 Z M7.96352941,22.5894118 C7.80705882,22.4823529 6.76117647,21.1152941 6.62117647,21.1729412 C4.72705882,21.9223529 2.95647059,23.2070588 1.37529412,24.4341176 C2.88235294,27.6705882 3.49176471,31.6317647 3.59882353,35.4529412 C5.32823529,36.26 6.84352941,37.4294118 9.19058824,37.5447059 C8.91882353,35.6258824 8.67176471,33.9129412 8.51529412,32.1094118 C7.92235294,31.8623529 7.08235294,32.1176471 6.53058824,32.0352941 C6.52235294,31.3682353 7.37058824,31.7470588 7.44470588,31.2941176 C7.49411765,30.9564706 6.97529412,30.9317647 7.14823529,30.3964706 C7.57647059,30.5529412 7.80705882,30.8988235 8.26823529,31.0305882 C8.68823529,30.1082353 8.26,28.4858824 8.32588235,27.72 C8.33411765,27.5717647 8.4,26.9211765 8.72117647,27.0364706 C9.00941176,27.1352941 8.70470588,28.7741176 8.73764706,29.5070588 C8.76235294,30.1741176 8.65529412,30.8247059 8.92705882,31.2447059 C11.1917647,30.94 13.4976471,30.7341176 15.9435294,30.6682353 C15.4082353,30.4376471 14.7658824,30.2152941 14.0576471,29.82 C13.6788235,29.6058824 12.4764706,29.1611765 12.3694118,28.7988235 C12.1964706,28.2223529 12.8305882,27.9176471 12.9376471,27.4235294 C11.7929412,28.0494118 11.5705882,26.8223529 11.2988235,25.9576471 C11.0517647,25.1752941 10.9117647,24.5905882 10.8541176,24.1376471 C9.86588235,23.6682353 8.81176471,23.1905882 7.96352941,22.5894118 Z M19.4270588,21.3376471 C21,20.5717647 21.2882353,24.1952941 20.6705882,25.3647059 C20.7694118,25.7105882 21.0988235,25.8423529 21.2305882,26.1552941 C20.3494118,27.7282353 19.3694118,29.2023529 18.4717647,30.7588235 C19.1388235,30.3470588 20.0941176,30.6847059 20.8764706,30.3717647 C21.1647059,30.2564706 21.3705882,29.5976471 21.5929412,29.0705882 C22.1941176,27.6211765 22.82,25.8011765 23.1,24.4176471 C23.1658824,24.1047059 23.3388235,23.4129412 23.2976471,23.1329412 C23.2317647,22.6305882 22.5482353,22.26 22.2023529,21.9470588 C21.5682353,21.3705882 21.1647059,20.8682353 20.4976471,20.3329412 C20.2258824,20.7447059 19.6494118,21.0164706 19.4270588,21.3376471 Z M4.35647059,7.35411765 C3.60705882,8.17764706 3.76352941,9.73411765 3.85411765,10.8294118 C5.21294118,9.97294118 7.01647059,10.8952941 7,12.3529412 C7.65058824,12.3364706 7.23882353,11.5458824 7.12352941,11.0352941 C6.73647059,9.36352941 7.76588235,7.55176471 7.17294118,6.02823529 C6.00352941,6.11058824 5.04823529,6.58823529 4.35647059,7.35411765 Z M9.73411765,2.55294118 C8.02941176,3.03882353 5.85529412,4.27411765 5.15529412,5.79764706 C5.69882353,5.71529412 6.06941176,5.44352941 6.60470588,5.41058824 C6.81058824,5.39411765 7.07411765,5.49294118 7.30470588,5.43529412 C7.76588235,5.32 8.15294118,4.28235294 8.50705882,3.89529412 C8.84470588,3.51647059 9.25647059,3.36 9.53647059,3.01411765 C9.71764706,2.92352941 9.98117647,2.93176471 9.98941176,2.66 C9.90705882,2.59411765 9.82470588,2.52823529 9.73411765,2.55294118 Z M18.5870588,3.00588235 C16.8247059,2.00941176 13.8352941,1.26 11.9576471,2.19882353 C10.4423529,2.95647059 8.39176471,4.20823529 7.69176471,5.78941176 C8.34235294,7.32117647 7.50235294,8.72117647 7.44470588,10.2694118 C7.42,11.0929412 7.83176471,11.8176471 7.86470588,12.7152941 C7.64235294,13.0858824 6.95882353,13.1270588 6.48941176,13.1023529 C6.33294118,12.3035294 6.05294118,11.4141176 5.22941176,11.3235294 C4.06823529,11.2 3.22,12.1552941 3.17058824,13.16 C3.10470588,14.3376471 4.07647059,16.2894118 5.44352941,16.1576471 C5.97058824,16.1082353 6.10235294,15.5729412 6.67882353,15.5811765 C6.99176471,16.2070588 6.19294118,16.4047059 6.11058824,16.8494118 C6.08588235,16.9647059 6.17647059,17.4176471 6.22588235,17.6235294 C6.47294118,18.6529412 7.03294118,19.9870588 7.57647059,20.7694118 C8.26823529,21.7658824 9.63529412,21.9141176 11.1011765,22.0129412 C11.3647059,21.4447059 12.3282353,21.4941176 12.9541176,21.6423529 C12.2047059,21.3458824 11.4964706,20.6211765 10.92,19.9788235 C10.2529412,19.2458824 9.57764706,18.4552941 9.54470588,17.4917647 C10.8047059,19.2376471 11.8423529,20.7694118 14.14,21.5352941 C15.8776471,22.12 17.8952941,21.2717647 19.2294118,20.3329412 C19.7811765,19.9458824 20.1105882,19.3282353 20.5058824,18.76 C21.98,16.6435294 22.6635294,13.6294118 22.5152941,10.6976471 C22.4494118,9.48705882 22.4576471,8.28470588 22.0541176,7.47764706 C21.6341176,6.62941176 20.2011765,5.87176471 19.3611765,6.63764706 C19.2047059,5.81411765 20.0611765,5.30352941 21.0576471,5.6 C20.3494118,4.68588235 19.6,3.58235294 18.5870588,3.00588235 Z M21.8811765,30.2317647 C23.2647059,29.5482353 25.8423529,28.3870588 26.7070588,30.2317647 C27.0282353,30.9152941 27.3988235,32.0682353 27.5635294,32.7682353 C27.7941176,33.7647059 27.3082353,35.8482353 26.2870588,36.1776471 C25.3894118,36.4741176 24.3352941,36.4576471 23.2482353,36.2352941 C23.1164706,36.1282353 22.9764706,35.9470588 22.8776471,35.7494118 C22.1035294,35.7164706 21.3788235,35.7905882 20.7611765,36.1117647 C20.8188235,36.6882353 20.4317647,36.7788235 20.0694118,36.8941176 C19.7976471,37.9647059 20.6047059,39.3564706 20.4152941,40.3282353 C20.2752941,41.02 19.4270588,41.1270588 18.7929412,41.2588235 C18.7764706,41.6458824 18.8176471,41.9670588 18.8670588,42.2964706 C18.7270588,42.8235294 18.0764706,43.1282353 17.4670588,43.2023529 C15.4576471,43.4411765 12.4105882,43.5482353 10.4835294,42.8564706 C9.94823529,41.5388235 9.52,39.9329412 9.07529412,38.4176471 C7.18941176,38.6152941 5.67411765,37.6023529 4.23294118,36.9435294 C3.73882353,36.7129412 3.04705882,36.5894118 2.86588235,36.1941176 C2.68470588,35.8152941 2.75882353,35.0741176 2.71764706,34.3823529 C2.60235294,32.6117647 2.50352941,30.9070588 2.04235294,29.0952941 C1.83647059,28.28 1.46588235,27.5635294 1.21058824,26.7811765 C0.971764706,26.0564706 0.56,25.1588235 0.452941176,24.4341176 C0.296470588,23.3635294 1.30117647,23.2976471 1.95176471,22.8364706 C2.94823529,22.12 3.73882353,21.7164706 4.81764706,21.0658824 C5.13882353,20.8764706 6.10235294,20.3905882 6.21764706,20.16 C6.44,19.7152941 5.83882353,19.0894118 5.68235294,18.7435294 C5.43529412,18.1917647 5.30352941,17.7223529 5.26235294,17.1788235 C4.35647059,17.0388235 3.66470588,16.4952941 3.25294118,15.8858824 C2.56117647,14.8811765 2.09176471,13.0117647 2.68470588,11.5952941 C2.73411765,11.48 2.96470588,11.2658824 2.99764706,11.0929412 C3.06352941,10.7552941 2.87411765,10.3023529 2.85764706,9.94823529 C2.79176471,8.10352941 3.17058824,6.51411765 4.41411765,5.95411765 C4.91647059,3.94470588 6.72,3.27764706 8.42470588,2.28117647 C9.05882353,1.91058824 9.75882353,1.67176471 10.4835294,1.4 C13.0776471,0.444705882 17.0635294,0.625882353 19.2129412,2.25647059 C20.1270588,2.94823529 21.5847059,4.40588235 22.1117647,5.46 C23.4870588,8.24352941 23.3964706,12.9047059 22.4247059,16.2976471 C22.2929412,16.7505882 22.1035294,17.4258824 21.8482353,17.9694118 C21.6670588,18.3482353 21.0988235,19.1141176 21.1647059,19.4517647 C21.2388235,19.7976471 22.4658824,20.7282353 22.7211765,20.9835294 C23.1905882,21.4364706 24.0964706,22.0458824 24.1705882,22.6223529 C24.2529412,23.2317647 23.8988235,24.0717647 23.7258824,24.6647059 C23.1247059,26.6494118 22.5482353,28.4694118 21.8811765,30.2317647 Z" fill="#231F20"></path>
                <path d="M12.6741176,16.5611765 C12.7482353,16.4623529 13.16,16.3141176 13.7364706,16.5858824 C13.7364706,16.5858824 13.0529412,16.7011765 13.1105882,17.8376471 L12.8223529,17.78 C12.8305882,17.78 12.5341176,16.7505882 12.6741176,16.5611765" fill="#F7E4CD"></path>
                <path d="M17.6647059,26.3364706 C17.6647059,26.5093032 17.5245973,26.6494118 17.3517647,26.6494118 C17.1789321,26.6494118 17.0388235,26.5093032 17.0388235,26.3364706 C17.0388235,26.1636379 17.1789321,26.0235294 17.3517647,26.0235294 C17.5245973,26.0235294 17.6647059,26.1636379 17.6647059,26.3364706" fill="#1D1919"></path>
                <path d="M1.86941176,26.6164706 L11.8341176,26.6164706 C11.9164706,26.6164706 11.9741176,26.6823529 11.9741176,26.7564706 L11.9741176,27.0694118 C11.9741176,27.1517647 11.9082353,27.2094118 11.8341176,27.2094118 L1.86941176,27.2094118 C1.78705882,27.2094118 1.72941176,27.1435294 1.72941176,27.0694118 L1.72941176,26.7564706 C1.72117647,26.6823529 1.78705882,26.6164706 1.86941176,26.6164706 Z M13.6952941,26.6164706 L22.5152941,26.6164706 C22.5976471,26.6164706 22.6552941,26.6823529 22.6552941,26.7564706 L22.6552941,27.0694118 C22.6552941,27.1517647 22.5894118,27.2094118 22.5152941,27.2094118 L13.6952941,27.2094118 C13.6129412,27.2094118 13.5552941,27.1435294 13.5552941,27.0694118 L13.5552941,26.7564706 C13.5552941,26.6823529 13.6129412,26.6164706 13.6952941,26.6164706 Z" fill="#231F20"></path>
                <path d="M1.86941176,26.3282353 L11.5541176,26.3282353 C11.6364706,26.3282353 11.6941176,26.3941176 11.6941176,26.4682353 L11.6941176,26.7811765 C11.6941176,26.8635294 11.6282353,26.9211765 11.5541176,26.9211765 L1.86941176,26.9211765 C1.78705882,26.9211765 1.72941176,26.8552941 1.72941176,26.7811765 L1.72941176,26.4682353 C1.72117647,26.3858824 1.78705882,26.3282353 1.86941176,26.3282353 Z M14.5682353,26.3282353 L22.5152941,26.3282353 C22.5976471,26.3282353 22.6552941,26.3941176 22.6552941,26.4682353 L22.6552941,26.7811765 C22.6552941,26.8635294 22.5894118,26.9211765 22.5152941,26.9211765 L14.5682353,26.9211765 C14.4858824,26.9211765 14.4282353,26.8552941 14.4282353,26.7811765 L14.4282353,26.4682353 C14.4282353,26.3858824 14.4858824,26.3282353 14.5682353,26.3282353 Z" fill="#231F20"></path>
            </g>
        </g>
    </g>
</svg>