<?xml version="1.0" encoding="UTF-8"?>
<svg width="28px" height="28px" viewBox="0 0 28 28" version="1.1" xmlns="http://www.w3.org/2000/svg" xmlns:xlink="http://www.w3.org/1999/xlink">
    <!-- Generator: Sketch 50.2 (55047) - http://www.bohemiancoding.com/sketch -->
    <title>Filling / Locked Route</title>
    <desc>Created with Sketch.</desc>
    <defs>
        <path d="M23.1642544,11.4914603 L13.2469128,11.5180172 L13.2469128,8.18346667 L14.0817952,8.18346667 L15.7830965,6.53859879 L13.2469128,6.53859879 L13.2469128,3.41152403 C13.2668304,3.41152403 13.2933873,3.41650345 13.3149648,3.41650345 C13.8759793,3.83145499 14.38388,4.31445857 14.8403266,4.85389556 C15.2403399,5.32528051 15.5971982,5.84977925 15.9142212,6.40913391 L17.3250564,5.04477327 C17.2570044,4.93024665 17.1906121,4.81737983 17.1175807,4.70285321 C17.2321073,4.77090526 17.3449741,4.84227692 17.4545213,4.92028781 L18.6894171,3.7268872 L18.7624485,3.61733999 C18.4670031,3.40488481 18.1549595,3.20238846 17.8346169,3.00985095 C16.1847696,2.04550359 14.3805604,1.5625 12.4253087,1.5625 C10.4700571,1.5625 8.66418802,2.04550359 7.01600053,3.00985095 C5.36615323,3.97419831 4.05988581,5.28212555 3.09553844,6.93031304 C2.13119108,8.59011917 1.64818749,10.3959882 1.64818749,12.3512399 C1.64818749,12.6317471 1.65814633,12.9056151 1.67972381,13.1761635 L11.6070243,13.1612253 L11.6070243,16.4957758 L10.7986987,16.4957758 L9.09739742,18.1406437 L11.6086841,18.1406437 L11.6086841,21.2942753 C11.5821272,21.2942753 11.5522507,21.2892959 11.5256938,21.2892959 C10.9862568,20.8793238 10.4932944,20.4129183 10.0468065,19.8834401 C9.63683442,19.4004365 9.27333687,18.8676388 8.94801487,18.2867066 L7.53717966,19.6510673 C7.61021113,19.7755527 7.68158279,19.8950588 7.75461426,20.0145648 C7.63510822,19.9415333 7.51560218,19.8635224 7.39609614,19.7871714 L6.06825123,21.0685417 C6.36867614,21.2859763 6.68569911,21.4934521 7.01766034,21.6859896 C8.66750764,22.6503369 10.4717169,23.1333405 12.4269685,23.1333405 C14.3822202,23.1333405 16.1880892,22.6503369 17.8362767,21.6859896 C19.486124,20.7216422 20.7923914,19.413715 21.7567388,17.7638677 C22.7210862,16.1140204 23.2040898,14.3098111 23.2040898,12.3545595 C23.1991103,12.0640934 23.1891515,11.7786068 23.167574,11.4931201 L23.1642544,11.4914603 Z M5.63172221,11.5180172 L3.47895366,11.5180172 C3.56194396,10.6001444 3.78933741,9.71878735 4.15283495,8.8673068 C4.25574293,8.63327413 4.36529013,8.40588069 4.47981676,8.18346667 L6.18609746,8.18346667 C5.87571372,9.2474024 5.69313504,10.3627921 5.63172221,11.5180172 Z M6.78362767,6.53859879 L5.58026822,6.53859879 C5.73629,6.3510407 5.90227061,6.17510125 6.07323065,6.00414122 C6.57615191,5.50121996 7.13716638,5.06469094 7.75959368,4.69123456 C7.51062276,5.09124784 7.27659009,5.50619938 7.05915549,5.94106858 C6.96122693,6.13858551 6.86661798,6.33444264 6.78362767,6.53693899 L6.78362767,6.53859879 Z M11.6020449,11.5180172 L7.43759129,11.5180172 C7.51062276,10.3760706 7.74299562,9.27727891 8.12807064,8.22496182 C8.13305006,8.21002357 8.13802948,8.19840493 8.1430089,8.18346667 L11.6020449,8.18346667 L11.6020449,11.5180172 Z M11.6020449,6.53859879 L8.87830301,6.53859879 C9.21524366,5.91617149 9.6052981,5.34519818 10.0401673,4.82733867 C10.4866552,4.29786051 10.984597,3.82647557 11.5290134,3.41650345 C11.5555703,3.41650345 11.575488,3.41152403 11.6020449,3.41152403 L11.6020449,6.53859879 Z M14.8386668,19.909997 C14.4087771,20.4228771 13.9307529,20.8793238 13.4062541,21.2793371 C13.3548002,21.2843165 13.2967069,21.2892959 13.245253,21.2942753 L13.245253,18.1406437 L16.0304076,18.1406437 C15.6835082,18.7896279 15.2834949,19.3755394 14.837007,19.909997 L14.8386668,19.909997 Z M13.2469128,16.4974356 L13.2469128,13.1628851 L17.4478821,13.1628851 C17.3748506,14.31977 17.1474572,15.4301803 16.764042,16.4974356 L13.2469128,16.4974356 Z M18.7707476,18.7016581 C18.2927234,19.1796823 17.7599256,19.5996133 17.1740141,19.961451 C17.4014075,19.5879946 17.6205019,19.2045794 17.8180189,18.7946073 C17.9275661,18.5771727 18.0254946,18.3597381 18.1184438,18.1356643 L19.2852875,18.1356643 C19.1242863,18.3331812 18.9533263,18.5240589 18.7724074,18.7016581 L18.7707476,18.7016581 Z M20.684504,15.8384926 C20.5865755,16.065886 20.4820077,16.2849804 20.3741203,16.4974356 L18.7043553,16.4974356 C19.0097597,15.4334999 19.1873589,14.3181101 19.2437923,13.1628851 L21.3650246,13.1628851 C21.2820343,14.0857373 21.0596202,14.978713 20.6861639,15.8401524 L20.684504,15.8384926 Z M6.74213252,17.3472563 L3.32957111,14.0127058 L3.32957111,16.4974356 L0,16.4974356 L0,18.1572417 L3.32957111,18.1572417 L3.32957111,20.6469509 L6.74213252,17.3472563 Z M25,7.38841953 L21.5874386,4.05386901 L21.5874386,6.53859879 L18.2578675,6.53859879 L18.2578675,8.19840493 L21.5874386,8.19840493 L21.5874386,10.6881141 L25,7.38841953 Z" id="path-1"></path>
    </defs>
    <g id="Filling-/-Locked-Route" stroke="none" stroke-width="1" fill="none" fill-rule="evenodd">
        <g id="Group-2" transform="translate(1.000000, 1.000000)">
            <g id="Icons-/-Object-/-pficon-route">
                <mask id="mask-2" fill="white">
                    <use xlink:href="#path-1"></use>
                </mask>
                <use id="Mask" fill="#000000" fill-rule="nonzero" xlink:href="#path-1"></use>
                <g id="Colors-/-8.-Dark" mask="url(#mask-2)" fill="#292E34" fill-rule="evenodd" stroke="#292E34" stroke-width="1">
                    <g id="Colors-/-Greyscale-/-pf-black-900">
                        <rect id="pf-black-900" x="0.5" y="0.5" width="24" height="24"></rect>
                    </g>
                </g>
            </g>
            <g id="Group" transform="translate(8.320000, 6.240000)">
                <path d="M17.68,10.9221488 L17.68,19.4699174 C17.68,19.8656494 17.5367607,20.2020165 17.2502778,20.4790289 C16.9637949,20.7560413 16.615928,20.8945455 16.2066667,20.8945455 L1.47333333,20.8945455 C1.06407203,20.8945455 0.716205136,20.7560413 0.429722222,20.4790289 C0.143239308,20.2020165 0,19.8656494 0,19.4699174 L0,10.9221488 C0,10.5264168 0.143239308,10.1900496 0.429722222,9.91303719 C0.716205136,9.63602479 1.06407203,9.49752066 1.47333333,9.49752066 L1.96444444,9.49752066 L1.96444444,6.64826446 C1.96444444,4.82789723 2.63971547,3.26477926 3.99027778,1.95886364 C5.34084009,0.652948016 6.95739799,0 8.84,0 C10.722602,0 12.3391599,0.652948016 13.6897222,1.95886364 C15.0402845,3.26477926 15.7155556,4.82789723 15.7155556,6.64826446 L15.7155556,9.49752066 L16.2066667,9.49752066 C16.615928,9.49752066 16.9637949,9.63602479 17.2502778,9.91303719 C17.5367607,10.1900496 17.68,10.5264168 17.68,10.9221488 Z" id="-copy-2" fill="#FFFFFF"></path>
                <text id="-copy" font-family="FontAwesome" font-size="20" font-weight="normal" fill="#333333">
                    <tspan x="2.08" y="18.44"></tspan>
                </text>
            </g>
        </g>
    </g>
</svg>