<?xml version="1.0" encoding="UTF-8"?>
<svg width="28px" height="28px" viewBox="0 0 28 28" version="1.1" xmlns="http://www.w3.org/2000/svg" xmlns:xlink="http://www.w3.org/1999/xlink">
    <!-- Generator: Sketch 50.2 (55047) - http://www.bohemiancoding.com/sketch -->
    <title>Filling / MySQL</title>
    <desc>Created with Sketch.</desc>
    <defs></defs>
    <g id="Filling-/-MySQL" stroke="none" stroke-width="1" fill="none" fill-rule="evenodd">
        <g id="mysql-database" transform="translate(1.000000, 5.000000)">
            <path d="M17.7197647,1.92247059 C17.6207717,1.92142385 17.5220625,1.93324839 17.4261176,1.95764706 L17.4261176,1.97141176 L17.4337647,1.97141176 C17.502563,2.07505315 17.5792615,2.17322733 17.6631765,2.26505882 C17.7212941,2.37976471 17.7702353,2.49447059 17.8283529,2.60764706 L17.8421176,2.59388235 C17.9512591,2.50883387 18.0090261,2.37365907 17.9950588,2.236 C17.9637597,2.18660916 17.9351685,2.13555345 17.9094118,2.08305882 C17.8665882,2.01117647 17.7732941,1.976 17.7167059,1.91788235" id="Shape" fill="#00758F"></path>
            <path d="M6.33176471,16.0511765 L5.34070588,16.0511765 C5.30603922,14.378 5.20968627,12.8042353 5.05164706,11.3298824 L5.04552941,11.3298824 L3.536,16.0511765 L2.78047059,16.0511765 L1.28011765,11.3298824 L1.27094118,11.3298824 C1.15980392,12.7461176 1.08945098,14.3198824 1.05988235,16.0511765 L0.151411765,16.0511765 C0.209529412,13.9446667 0.355843137,11.9696863 0.590352941,10.1262353 L1.81388235,10.1262353 L3.24388235,14.4789412 L3.25305882,14.4789412 L4.69223529,10.1262353 L5.86835294,10.1262353 C6.12631373,12.2847451 6.2792549,14.2597255 6.32717647,16.0511765 L6.33176471,16.0511765 Z M10.6309412,11.6816471 C10.223098,13.8727843 9.69086275,15.464902 9.03423529,16.458 C8.51627451,17.2227059 7.95141176,17.6050588 7.33964706,17.6050588 C7.12785822,17.5934251 6.92022957,17.5415179 6.72788235,17.4521176 L6.72788235,16.9244706 C6.8647259,16.9430479 7.00273056,16.9517371 7.14082353,16.9504706 C7.39347104,16.9621724 7.64112584,16.877434 7.83364706,16.7134118 C8.02836582,16.5530062 8.14342021,16.3156367 8.14870588,16.0634118 C8.10745731,15.7182745 8.02478335,15.3793626 7.90247059,15.054 L6.81352941,11.6755294 L7.79847059,11.6755294 L8.58,14.2021176 C8.75537255,14.7761569 8.82827451,15.1768627 8.79870588,15.4042353 C9.24093637,14.1998322 9.54119977,12.9479648 9.69341176,11.674 L10.6309412,11.6816471 Z" id="Shape" fill="#00758F" fill-rule="nonzero"></path>
            <polygon id="Shape" fill="#F29111" fill-rule="nonzero" points="23.8312941 16.0527059 21.0141176 16.0527059 21.0141176 10.1277647 21.9623529 10.1277647 21.9623529 15.3231765 23.8312941 15.3231765"></polygon>
            <path d="M20.2769412,16.1949412 L19.188,15.6581176 C19.2867652,15.5785675 19.3779042,15.4899886 19.4602353,15.3935294 C19.9221176,14.8500784 20.1535686,14.0456078 20.1545882,12.9801176 C20.1545882,11.0204314 19.3852941,10.0400784 17.8467059,10.0390588 C17.0921961,10.0390588 16.5038824,10.2878431 16.0817647,10.7854118 C15.6188627,11.3298824 15.3879216,12.1312941 15.3889412,13.1896471 C15.3889412,14.2306667 15.5928627,14.9953725 16.0007059,15.4837647 C16.374902,15.9221961 16.9397647,16.1414118 17.6952941,16.1414118 C17.9574173,16.1441528 18.2185689,16.1091266 18.4707059,16.0374118 L19.8884706,16.8632941 L20.2769412,16.1949412 Z M16.7485882,14.8674118 C16.5089804,14.4809804 16.3891765,13.8610588 16.3891765,13.0076471 C16.3891765,11.5159608 16.8423922,10.7701176 17.7488235,10.7701176 C18.1690684,10.7423713 18.5704975,10.9480816 18.7934118,11.3054118 C19.0330196,11.6918431 19.1528235,12.3061569 19.1528235,13.1483529 C19.1528235,14.6522745 18.6996078,15.4042353 17.7931765,15.4042353 C17.3728606,15.4323253 16.9712651,15.2265296 16.7485882,14.8689412 L16.7485882,14.8674118 Z" id="Shape" fill="#F29111"></path>
            <path d="M14.9744706,14.4101176 C14.9866972,14.8847587 14.7837761,15.3395044 14.4223529,15.6474118 C14.0542745,15.9685882 13.5602745,16.1291765 12.9403529,16.1291765 C12.33633,16.1199167 11.7494743,15.9267878 11.258,15.5755294 L11.5118824,15.0662353 C11.9033137,15.2796485 12.3388459,15.3995245 12.7843529,15.4164706 C13.0821937,15.4338043 13.3772588,15.3508845 13.6224706,15.1809412 C13.8292003,15.0260959 13.9491965,14.7815538 13.9451765,14.5232941 C13.9451765,14.1715294 13.7004706,13.8702353 13.2492941,13.6178824 C12.8332941,13.39 12.0028235,12.9143529 12.0028235,12.9143529 C11.5531765,12.5855294 11.3268235,12.2337647 11.3268235,11.6541176 C11.3112599,11.2103989 11.4966947,10.7833368 11.8315294,10.4917647 C12.1953051,10.1864748 12.6601032,10.0282688 13.1345882,10.0482353 C13.6670649,10.0432752 14.1891014,10.1960015 14.6349412,10.4871765 L14.4055294,10.9949412 C14.0456737,10.8370666 13.6575357,10.7538199 13.2645882,10.7502353 C13.0112861,10.7333221 12.7608351,10.811895 12.5625882,10.9704706 C12.3951949,11.1089719 12.2977484,11.3145057 12.2964706,11.5317647 C12.2964706,11.882 12.5472941,12.1863529 13.0091765,12.4494118 C13.4297647,12.6772941 14.2801176,13.1621176 14.2801176,13.1621176 C14.7389412,13.4894118 14.9729412,13.8396471 14.9729412,14.4147059" id="Shape" fill="#F29111" fill-rule="nonzero"></path>
            <path d="M25.0211765,8.14258824 C24.5492755,8.1093566 24.0757338,8.17767593 23.6324706,8.34294118 C23.5254118,8.38576471 23.3541176,8.38576471 23.3388235,8.52188235 C23.3969412,8.57847059 23.4030588,8.67482353 23.4535294,8.75129412 C23.5513851,8.91690699 23.6771163,9.06436955 23.8251765,9.18717647 C23.9781176,9.30188235 24.1310588,9.41658824 24.284,9.516 C24.5623529,9.68882353 24.8774118,9.78823529 25.1496471,9.95952941 C25.3025882,10.0589412 25.4647059,10.1889412 25.6222353,10.296 C25.7002353,10.3525882 25.7507059,10.4489412 25.8516471,10.4810588 L25.8516471,10.4596471 C25.8011765,10.3954118 25.7874118,10.3067059 25.7369412,10.2302353 C25.6864706,10.1537647 25.5931765,10.0941176 25.5212941,10.0237647 C25.3110507,9.74536804 25.059338,9.50087658 24.7749412,9.29882353 C24.5455294,9.14588235 24.0438824,8.92564706 23.9521176,8.66258824 L23.9383529,8.64729412 C24.1060753,8.62367586 24.2713841,8.58529145 24.4323529,8.53258824 C24.6755294,8.46835294 24.8911765,8.48211765 25.1481176,8.41788235 C25.2628235,8.38882353 25.3775294,8.35364706 25.4922353,8.31847059 L25.4922353,8.25423529 C25.3622353,8.12576471 25.2704706,7.94835294 25.1343529,7.83211765 C24.7639665,7.50861597 24.3692323,7.21409927 23.9536471,6.95117647 C23.7318824,6.80741176 23.4443529,6.71564706 23.2088235,6.59329412 C23.1231765,6.55047059 22.9809412,6.52905882 22.9304706,6.45717647 C22.8128834,6.28485581 22.7144202,6.10023717 22.6368235,5.90658824 C22.4288235,5.51352941 22.2284706,5.07764706 22.0495294,4.66164706 C21.9436602,4.38303709 21.8216092,4.11084816 21.684,3.84647059 C20.9468235,2.62294118 20.1454118,1.89188235 18.9142353,1.17 C18.6236902,1.02943593 18.3147616,0.930578781 17.9965882,0.876352941 C17.8176471,0.876352941 17.6387059,0.854941176 17.4597647,0.847294118 C17.3442383,0.7717442 17.2343423,0.687916544 17.1309412,0.596470588 C16.7225882,0.339529412 15.6703529,-0.218705882 15.3705882,0.518470588 C15.1778824,0.977294118 15.6565882,1.43611765 15.8217647,1.67776471 C15.9601555,1.84452645 16.0820587,2.02430801 16.1857647,2.21458824 C16.2362353,2.33694118 16.25,2.46541176 16.3004706,2.59388235 C16.4049591,2.92071127 16.5290668,3.24093985 16.6721176,3.55282353 C16.7488888,3.70718964 16.8373424,3.85546432 16.9367059,3.99635294 C16.9948235,4.07588235 17.0896471,4.11105882 17.1156471,4.23952941 C17.0162353,4.38176471 17.0085882,4.59741176 16.9504706,4.77635294 C16.6935294,5.58541176 16.7975294,6.58717647 17.1584706,7.18211765 C17.2731765,7.36105882 17.5454118,7.75564706 17.9109412,7.60423529 C18.2336471,7.47576471 18.1617647,7.06741176 18.2550588,6.70952941 C18.2764706,6.62235294 18.2550588,6.56576471 18.3055294,6.50917647 L18.3055294,6.52294118 C18.4049412,6.72329412 18.5058824,6.916 18.5991765,7.11635294 C18.8548841,7.48497635 19.1695674,7.80896056 19.5305882,8.07529412 C19.7018824,8.20529412 19.8364706,8.42552941 20.0521176,8.50505882 L20.0521176,8.48364706 L20.0337647,8.48364706 C19.9855642,8.42880899 19.9299731,8.38093893 19.8685882,8.34141176 C19.7333203,8.20841234 19.6090326,8.06468874 19.4969412,7.91164706 C19.1939484,7.5003927 18.9258771,7.06452103 18.6955294,6.60858824 C18.5808235,6.38682353 18.4814118,6.14976471 18.3896471,5.92188235 C18.3468235,5.83623529 18.3468235,5.70776471 18.2749412,5.66494118 C18.1425526,5.81379458 18.0271367,5.97691569 17.9308235,6.15129412 C17.7947059,6.45717647 17.7778824,6.83952941 17.7304706,7.23258824 C17.7014118,7.23258824 17.7167059,7.23258824 17.7014118,7.24635294 C17.472,7.18976471 17.3955294,6.95270588 17.3083529,6.75388235 C17.085753,6.1393695 17.0632684,5.47018639 17.2441176,4.84211765 C17.2945882,4.68917647 17.5087059,4.21964706 17.4230588,4.07741176 C17.3802353,3.94129412 17.2364706,3.86329412 17.1584706,3.75470588 C17.0587883,3.61005863 16.972771,3.45645636 16.9015294,3.29588235 C16.7302353,2.89517647 16.6430588,2.45164706 16.458,2.05094118 C16.3547161,1.85748822 16.2349805,1.67327961 16.1001176,1.50035294 C15.9509053,1.32742581 15.8187611,1.14047771 15.7055294,0.942117647 C15.6703529,0.862588235 15.6198824,0.734117647 15.6764706,0.648470588 C15.6856971,0.598424073 15.7267948,0.560439869 15.7774118,0.555176471 C15.8707059,0.477176471 16.1352941,0.576588235 16.2285882,0.619411765 C16.4769724,0.712525309 16.7144242,0.832533355 16.9367059,0.977294118 C17.0376471,1.04917647 17.1447059,1.18529412 17.2731765,1.22047059 L17.4261176,1.22047059 C17.6555294,1.26941176 17.9124706,1.23423529 18.1281176,1.29847059 C18.4909743,1.41952412 18.8372688,1.58547835 19.1589412,1.79247059 C20.1066079,2.39628002 20.8771289,3.24068658 21.3918824,4.23952941 C21.4775294,4.40317647 21.5142353,4.55458824 21.5922353,4.72588235 C21.7451765,5.07764706 21.9287059,5.43552941 22.0785882,5.77811765 C22.2107854,6.11634418 22.3816874,6.43813253 22.5878824,6.73705882 C22.6949412,6.89 23.1247059,6.96647059 23.3174118,7.04294118 C23.4854426,7.10111057 23.6503322,7.16798533 23.8114118,7.24329412 C24.0545882,7.39623529 24.2977647,7.566 24.5271765,7.72964706 C24.6418824,7.81529412 24.9997647,7.99423529 25.0211765,8.138" id="Shape" fill="#00758F"></path>
            <path d="M25.7032941,16.0511765 L25.8562353,16.0511765 L25.8562353,15.3247059 L25.6329412,15.3247059 L25.4509412,15.8202353 L25.2536471,15.3247059 L25.0395294,15.3247059 L25.0395294,16.0511765 L25.1802353,16.0511765 L25.1802353,15.4990588 L25.1878824,15.4990588 L25.3943529,16.0511765 L25.5014118,16.0511765 L25.7078824,15.4990588 L25.7032941,16.0511765 Z M24.5088235,16.0511765 L24.6617647,16.0511765 L24.6617647,15.4485882 L24.8667059,15.4485882 L24.8667059,15.3247059 L24.2901176,15.3247059 L24.2901176,15.4485882 L24.5042353,15.4485882 L24.5088235,16.0511765 Z" id="Shape" fill="#F29111" fill-rule="nonzero"></path>
        </g>
    </g>
</svg>