<?xml version="1.0" encoding="UTF-8"?>
<svg width="28px" height="28px" viewBox="0 0 28 28" version="1.1" xmlns="http://www.w3.org/2000/svg" xmlns:xlink="http://www.w3.org/1999/xlink">
    <!-- Generator: Sketch 50.2 (55047) - http://www.bohemiancoding.com/sketch -->
    <title>Filling / Node JS</title>
    <desc>Created with Sketch.</desc>
    <defs>
        <linearGradient x1="2.6098%" y1="2.3784%" x2="2.0592%" y2="3.5018%" id="linearGradient-1">
            <stop stop-color="#41873F" offset="0%"></stop>
            <stop stop-color="#418B3D" offset="32.9%"></stop>
            <stop stop-color="#419637" offset="63.5%"></stop>
            <stop stop-color="#3FA92D" offset="93.2%"></stop>
            <stop stop-color="#3FAE2A" offset="100%"></stop>
        </linearGradient>
        <linearGradient x1="68.2137628%" y1="17.5276719%" x2="27.9062958%" y2="89.6789167%" id="linearGradient-2">
            <stop stop-color="#41873F" offset="0%"></stop>
            <stop stop-color="#418B3D" offset="32.9%"></stop>
            <stop stop-color="#419637" offset="63.5%"></stop>
            <stop stop-color="#3FA92D" offset="93.2%"></stop>
            <stop stop-color="#3FAE2A" offset="100%"></stop>
        </linearGradient>
        <linearGradient x1="43.3333333%" y1="55.2988328%" x2="159.339339%" y2="-18.2611154%" id="linearGradient-3">
            <stop stop-color="#41873F" offset="13.8%"></stop>
            <stop stop-color="#54A044" offset="40.3%"></stop>
            <stop stop-color="#66B848" offset="71.4%"></stop>
            <stop stop-color="#6CC04A" offset="90.8%"></stop>
        </linearGradient>
        <linearGradient x1="-319.3%" y1="0.7%" x2="385.4%" y2="0.7%" id="linearGradient-4">
            <stop stop-color="#6CC04A" offset="9.2%"></stop>
            <stop stop-color="#66B848" offset="28.6%"></stop>
            <stop stop-color="#54A044" offset="59.7%"></stop>
            <stop stop-color="#41873F" offset="86.2%"></stop>
        </linearGradient>
        <linearGradient x1="-4.40601504%" y1="49.9042038%" x2="101.56391%" y2="49.9042038%" id="linearGradient-5">
            <stop stop-color="#6CC04A" offset="9.2%"></stop>
            <stop stop-color="#66B848" offset="28.6%"></stop>
            <stop stop-color="#54A044" offset="59.7%"></stop>
            <stop stop-color="#41873F" offset="86.2%"></stop>
        </linearGradient>
        <linearGradient x1="-702.3%" y1="2.1%" x2="2.4%" y2="2.1%" id="linearGradient-6">
            <stop stop-color="#6CC04A" offset="9.2%"></stop>
            <stop stop-color="#66B848" offset="28.6%"></stop>
            <stop stop-color="#54A044" offset="59.7%"></stop>
            <stop stop-color="#41873F" offset="86.2%"></stop>
        </linearGradient>
        <linearGradient x1="-103.995157%" y1="50%" x2="100.581114%" y2="50%" id="linearGradient-7">
            <stop stop-color="#6CC04A" offset="9.2%"></stop>
            <stop stop-color="#66B848" offset="28.6%"></stop>
            <stop stop-color="#54A044" offset="59.7%"></stop>
            <stop stop-color="#41873F" offset="86.2%"></stop>
        </linearGradient>
        <linearGradient x1="119.661017%" y1="-220.138889%" x2="10.1452785%" y2="207.037037%" id="linearGradient-8">
            <stop stop-color="#41873F" offset="0%"></stop>
            <stop stop-color="#418B3D" offset="32.9%"></stop>
            <stop stop-color="#419637" offset="63.5%"></stop>
            <stop stop-color="#3FA92D" offset="93.2%"></stop>
            <stop stop-color="#3FAE2A" offset="100%"></stop>
        </linearGradient>
    </defs>
    <g id="Filling-/-Node-JS" stroke="none" stroke-width="1" fill="none" fill-rule="evenodd">
        <g id="nodejs" transform="translate(1.000000, 6.000000)">
            <path d="M12.85375,15.965625 C12.7682537,15.9653448 12.6842837,15.9429528 12.61,15.900625 L11.821875,15.4375 C11.708125,15.3725 11.765,15.348125 11.7975,15.331875 C11.951875,15.275 11.984375,15.266875 12.155,15.169375 C12.17125,15.16125 12.195625,15.16125 12.211875,15.1775 L12.813125,15.535 C12.8375,15.543125 12.861875,15.543125 12.88625,15.535 L15.234375,14.178125 C15.2559698,14.1637559 15.2683366,14.1390223 15.266875,14.113125 L15.266875,11.399375 C15.266875,11.375 15.250625,11.350625 15.234375,11.334375 L12.88625,9.9775 C12.8645833,9.96125 12.8347917,9.96125 12.813125,9.9775 L10.465,11.334375 C10.440625,11.350625 10.424375,11.375 10.424375,11.399375 L10.424375,14.113125 C10.424375,14.1375 10.440625,14.161875 10.465,14.178125 L11.106875,14.551875 C11.45625,14.7225 11.6675,14.519375 11.6675,14.31625 L11.6675,11.643125 C11.6675,11.6025 11.7,11.578125 11.7325,11.578125 L12.033125,11.578125 C12.07375,11.578125 12.098125,11.610625 12.098125,11.643125 L12.098125,14.31625 C12.098125,14.779375 11.84625,15.0475 11.399375,15.0475 C11.26125,15.0475 11.155625,15.0475 10.855,14.90125 L10.2375,14.54375 C10.0845333,14.4546733 9.99139103,14.2901219 9.99375,14.113125 L9.99375,11.399375 C9.99375,11.220625 10.09125,11.058125 10.2375,10.96875 L12.585625,9.611875 C12.731875,9.530625 12.935,9.530625 13.08125,9.611875 L15.429375,10.96875 C15.58375,11.058125 15.673125,11.220625 15.673125,11.399375 L15.673125,14.113125 C15.673125,14.291875 15.575625,14.454375 15.429375,14.54375 L13.08125,15.900625 C13.024375,15.94125 12.935,15.965625 12.85375,15.965625 Z" id="Shape" fill="#699F63" fill-rule="nonzero"></path>
            <path d="M13.576875,14.096875 C12.553125,14.096875 12.33375,13.625625 12.33375,13.2275 C12.33375,13.186875 12.36625,13.1625 12.39875,13.1625 L12.699375,13.1625 C12.731875,13.1625 12.764375,13.186875 12.764375,13.219375 C12.813125,13.528125 12.943125,13.6825 13.56875,13.6825 C14.064375,13.6825 14.275625,13.56875 14.275625,13.30875 C14.275625,13.154375 14.21875,13.04875 13.446875,12.9675 C12.805,12.9025 12.406875,12.764375 12.406875,12.244375 C12.406875,11.773125 12.805,11.48875 13.479375,11.48875 C14.235,11.48875 14.600625,11.74875 14.649375,12.309375 C14.649375,12.325625 14.64125,12.35 14.633125,12.358125 C14.616875,12.374375 14.600625,12.3825 14.584375,12.3825 L14.275625,12.3825 C14.243125,12.3825 14.21875,12.358125 14.210625,12.325625 C14.1375,12.000625 13.95875,11.895 13.479375,11.895 C12.943125,11.895 12.878125,12.081875 12.878125,12.228125 C12.878125,12.39875 12.95125,12.4475 13.6825,12.545 C14.405625,12.6425 14.746875,12.7725 14.746875,13.284375 C14.746875,13.804375 14.31625,14.096875 13.576875,14.096875 Z M16.965,11.26125 C16.965,11.5125396 16.7612896,11.71625 16.51,11.71625 C16.2587104,11.71625 16.055,11.5125396 16.055,11.26125 C16.055,11.0099604 16.2587104,10.80625 16.51,10.80625 C16.7612896,10.80625 16.965,11.0099604 16.965,11.26125 Z M16.128125,11.26125 C16.128125,11.415704 16.2211659,11.5549495 16.3638628,11.6140565 C16.5065597,11.6731635 16.6708109,11.6404919 16.7800264,11.5312764 C16.8892419,11.4220609 16.9219135,11.2578097 16.8628065,11.1151128 C16.8036995,10.9724159 16.664454,10.879375 16.51,10.879375 C16.29875,10.879375 16.128125,11.041875 16.128125,11.26125 Z M16.339375,11.00125 L16.518125,11.00125 C16.575,11.00125 16.696875,11.00125 16.696875,11.139375 C16.696875,11.22875 16.64,11.253125 16.599375,11.26125 C16.6725,11.269375 16.6725,11.31 16.680625,11.375 C16.68875,11.415625 16.68875,11.48875 16.705,11.505 L16.599375,11.505 C16.599375,11.480625 16.583125,11.350625 16.583125,11.3425 C16.575,11.31 16.566875,11.301875 16.534375,11.301875 L16.445,11.301875 L16.445,11.505 L16.3475,11.505 L16.3475,11.00125 L16.339375,11.00125 Z M16.436875,11.22875 L16.518125,11.22875 C16.583125,11.22875 16.59125,11.18 16.59125,11.155625 C16.59125,11.0825 16.5425,11.0825 16.518125,11.0825 L16.436875,11.0825 L16.436875,11.22875 Z" id="Shape" fill="#699F63" fill-rule="nonzero"></path>
            <path d="M5.581875,5.3625 C5.581875,5.256875 5.525,5.15125 5.4275,5.1025 L2.94125,3.6725 C2.89965666,3.64687931 2.85196628,3.63285272 2.803125,3.631875 L2.77875,3.631875 C2.73,3.631875 2.68125,3.648125 2.640625,3.6725 L0.154375,5.1025 C0.0599037057,5.15509791 0.000956381768,5.25437761 0,5.3625 L0.008125,9.221875 C0.008125,9.27875 0.0325,9.3275 0.08125,9.351875 C0.13,9.37625 0.186875,9.37625 0.2275,9.351875 L1.70625,8.506875 C1.80072129,8.45427709 1.85966862,8.35499739 1.860625,8.246875 L1.860625,6.443125 C1.860625,6.3375 1.9175,6.24 2.006875,6.183125 L2.640625,5.8175 C2.689375,5.793125 2.738125,5.776875 2.795,5.776875 C2.84375,5.776875 2.900625,5.793125 2.94125,5.8175 L3.575,6.183125 C3.664375,6.24 3.729375,6.3375 3.729375,6.443125 L3.729375,8.246875 C3.729375,8.3525 3.78625,8.45 3.88375,8.506875 L5.3625,9.351875 C5.41125,9.37625 5.468125,9.37625 5.516875,9.351875 C5.565625,9.3275 5.59,9.27875 5.59,9.221875 L5.581875,5.3625 Z M17.558125,0.065 C17.5124309,0.0405888317 17.4575691,0.0405888317 17.411875,0.065 C17.363125,0.089375 17.33875,0.138125 17.33875,0.195 L17.33875,4.01375 C17.33875,4.054375 17.3225,4.086875 17.29,4.103125 C17.2575,4.119375 17.216875,4.119375 17.184375,4.103125 L16.55875,3.745625 C16.4666227,3.68871157 16.3502523,3.68871157 16.258125,3.745625 L13.76375,5.18375 C13.674375,5.240625 13.609375,5.338125 13.609375,5.44375 L13.609375,8.32 C13.609375,8.425625 13.66625,8.523125 13.76375,8.58 L16.25,10.018125 C16.339375,10.075 16.46125,10.075 16.550625,10.018125 L19.045,8.58 C19.134375,8.523125 19.199375,8.425625 19.199375,8.32 L19.199375,1.15375 C19.199375,1.048125 19.1425,0.9425 19.045,0.89375 L17.558125,0.065 Z M17.330625,7.3775 C17.330625,7.401875 17.314375,7.42625 17.29,7.4425 L16.436875,7.938125 C16.4125,7.954375 16.388125,7.954375 16.36375,7.938125 L15.510625,7.4425 C15.48625,7.42625 15.47,7.401875 15.47,7.3775 L15.47,6.38625 C15.47,6.361875 15.48625,6.3375 15.510625,6.32125 L16.36375,5.825625 C16.388125,5.809375 16.4125,5.809375 16.436875,5.825625 L17.29,6.32125 C17.314375,6.3375 17.330625,6.361875 17.330625,6.38625 L17.330625,7.3775 Z M25.85375,6.361875 C25.943125,6.305 26,6.2075 26,6.101875 L26,5.403125 C26,5.2975 25.943125,5.2 25.85375,5.143125 L23.375625,3.705 C23.2834977,3.64808657 23.1671273,3.64808657 23.075,3.705 L20.58875,5.143125 C20.499375,5.2 20.434375,5.2975 20.434375,5.403125 L20.434375,8.279375 C20.434375,8.385 20.49125,8.490625 20.58875,8.539375 L23.05875,9.953125 C23.148125,10.001875 23.261875,10.001875 23.35125,9.953125 L24.84625,9.124375 C24.895,9.1 24.919375,9.05125 24.9275,8.994375 C24.927065,8.94135991 24.8994558,8.89227683 24.854375,8.864375 L22.351875,7.42625 C22.303125,7.401875 22.27875,7.353125 22.27875,7.29625 L22.27875,6.394375 C22.27875,6.3375 22.31125,6.28875 22.351875,6.264375 L23.131875,5.8175 C23.180625,5.793125 23.2375,5.793125 23.278125,5.8175 L24.058125,6.264375 C24.106875,6.28875 24.13125,6.3375 24.13125,6.394375 L24.13125,7.10125 C24.13125,7.158125 24.16375,7.206875 24.204375,7.23125 C24.253125,7.255625 24.31,7.255625 24.35875,7.23125 L25.85375,6.361875 Z" id="Shape" fill="#333333"></path>
            <path d="M23.18875,6.22375 C23.205,6.215625 23.229375,6.215625 23.245625,6.22375 L23.725,6.5 C23.74125,6.508125 23.7575,6.5325 23.7575,6.54875 L23.7575,7.10125 C23.7575,7.125625 23.749375,7.141875 23.725,7.15 L23.245625,7.42625 C23.229375,7.434375 23.205,7.434375 23.18875,7.42625 L22.709375,7.15 C22.693125,7.141875 22.676875,7.1175 22.676875,7.10125 L22.676875,6.54875 C22.676875,6.524375 22.685,6.508125 22.709375,6.5 L23.18875,6.22375 Z" id="Shape" fill="#699F63"></path>
            <g id="Group" transform="translate(6.500000, 2.437500)">
                <g id="XMLID_143_-link" transform="translate(0.000000, 0.812500)" fill="url(#linearGradient-2)">
                    <path d="M3.241875,0.47125 C3.14974768,0.414336566 3.03337732,0.414336566 2.94125,0.47125 L0.463125,1.90125 C0.37375,1.958125 0.316875,2.055625 0.316875,2.16125 L0.316875,5.02125 C0.316875,5.126875 0.37375,5.224375 0.463125,5.28125 L2.94125,6.71125 C3.030625,6.768125 3.144375,6.768125 3.241875,6.71125 L5.72,5.28125 C5.809375,5.224375 5.86625,5.126875 5.86625,5.02125 L5.86625,2.16125 C5.86625,2.055625 5.809375,1.958125 5.72,1.90125 L3.241875,0.47125 Z" id="XMLID_143_"></path>
                </g>
                <g transform="translate(0.000000, 0.812500)" id="Shape">
                    <path d="M2.94125,0.47125 L0.30875,1.90125 C0.219375,1.958125 -8.8817842e-16,2.055625 -8.8817842e-16,2.16125 L-8.8817842e-16,5.02125 C-8.8817842e-16,5.094375 0.17875,5.159375 0.2275,5.208125 L3.0875,0.43875 C3.014375,0.4225 3.00625,0.430625 2.94125,0.47125 Z M3.176875,6.735625 C3.20125,6.7275 3.225625,6.719375 3.25,6.703125 L6.036875,5.273125 C6.12625,5.21625 6.5,5.11875 6.5,5.013125 L6.5,2.153125 C6.5,2.071875 6.15875,1.99875 6.101875,1.941875 L3.176875,6.735625 Z"></path>
                    <path d="M5.728125,1.90125 L3.241875,0.47125 C3.21697399,0.455603956 3.18944714,0.444593216 3.160625,0.43875 L0.37375,5.208125 C0.398125,5.2325 0.4225,5.256875 0.455,5.273125 L2.94125,6.703125 C3.014375,6.74375 3.095625,6.751875 3.16875,6.735625 L5.785,1.95 C5.776875,1.93375 5.7525,1.9175 5.728125,1.90125 Z" fill="url(#linearGradient-3)" fill-rule="nonzero"></path>
                </g>
                <g id="Shape">
                    <path d="M6.5,5.83375 L6.5,2.97375 C6.5,2.868125 6.12625,2.770625 6.036875,2.71375 L3.39625,1.28375 C3.36375,1.2675 3.258125,1.259375 3.225625,1.25125 L6.215625,5.89875 C6.22375,5.8825 6.5,5.858125 6.5,5.83375 Z M0.30875,2.71375 C0.219375,2.770625 0,2.868125 0,2.97375 L0,5.83375 C0,5.939375 0.219375,6.036875 0.30875,6.09375 L2.868125,7.52375 C2.925,7.55625 3.030625,7.5725 3.095625,7.564375 L0.37375,2.71375 L0.30875,2.71375 Z"></path>
                    <polygon fill="url(#linearGradient-4)" fill-rule="nonzero" points="2.86 0.76375 2.8275 0.78 2.87625 0.78"></polygon>
                    <path d="M5.728125,6.09375 C5.80125,6.053125 5.858125,5.98 5.874375,5.906875 L3.1525,1.259375 C3.08044447,1.24541637 3.00577783,1.25690355 2.94125,1.291875 L0.47125,2.71375 L3.13625,7.564375 C3.176875,7.55625 3.209375,7.548125 3.241875,7.52375 L5.728125,6.09375 Z" fill="url(#linearGradient-5)" fill-rule="nonzero"></path>
                    <polygon fill="url(#linearGradient-6)" fill-rule="nonzero" points="5.955625 6.045 5.939375 6.020625 5.939375 6.053125"></polygon>
                    <path d="M5.728125,6.09375 L3.25,7.52375 C3.2175,7.54 3.176875,7.55625 3.144375,7.564375 L3.469375,7.65375 L6.5,6.053125 L6.5,6.0125 L6.150625,5.89875 C6.134375,5.98 5.80125,6.053125 5.728125,6.09375 Z" fill="url(#linearGradient-7)" fill-rule="nonzero"></path>
                    <path d="M5.728125,6.09375 L3.25,7.52375 C3.2175,7.54 3.176875,7.55625 3.144375,7.564375 L3.469375,7.65375 L6.5,6.053125 L6.5,6.0125 L6.150625,5.89875 C6.134375,5.98 5.80125,6.053125 5.728125,6.09375 Z" fill="url(#linearGradient-8)" fill-rule="nonzero"></path>
                </g>
            </g>
        </g>
    </g>
</svg>