<?xml version="1.0" encoding="UTF-8"?>
<svg width="28px" height="28px" viewBox="0 0 28 28" version="1.1" xmlns="http://www.w3.org/2000/svg" xmlns:xlink="http://www.w3.org/1999/xlink">
    <!-- Generator: Sketch 50.2 (55047) - http://www.bohemiancoding.com/sketch -->
    <title>Filling / Tomcat</title>
    <desc>Created with Sketch.</desc>
    <defs></defs>
    <g id="Filling-/-Tomcat" stroke="none" stroke-width="1" fill="none" fill-rule="evenodd">
        <g id="rh-tomcat" transform="translate(-5.000000, -5.000000)" fill-rule="nonzero">
            <circle id="Oval" fill="#D71E00" transform="translate(19.000000, 19.000000) rotate(-45.000000) translate(-19.000000, -19.000000) " cx="19" cy="19" r="13.3802817"></circle>
            <path d="M28.4625352,9.53746479 C33.6885491,14.7634787 33.6885491,23.2365213 28.4625352,28.4625352 C23.2365213,33.6885491 14.7634787,33.6885491 9.53746479,28.4625352 L28.4625352,9.53746479 Z" id="Shape" fill="#C21A00"></path>
            <path d="M24.7829577,15.2133803 L27.2957746,12.6925352 C27.1280292,12.5540467 26.9074531,12.497187 26.693662,12.5373239 L22.9230986,13.251831 C22.751831,13.2839437 22.5350704,13.3133803 22.2942254,13.3374648 L19,16.6290141 L15.7111268,13.3401408 C15.8074648,13.3401408 15.3364789,13.3 15.0769014,13.2491549 L11.2983099,12.54 C11.0845188,12.4998631 10.8639426,12.5567227 10.6961972,12.6952113 L13.2170423,15.2160563 C12.4142254,16.2115493 11.4401408,17.8385915 11.3277465,19.8643662 L12.5774648,19.4576056 C12.2396795,20.605928 12.3125412,21.8360603 12.7835211,22.9364789 L13.7067606,22.0480282 C13.7067606,22.0480282 13.7201408,23.2816901 15.2535211,24.8873239 L15.483662,24.084507 L17.1990141,25.7998592 C18.1938145,26.7941701 19.8061855,26.7941701 20.8009859,25.7998592 L22.516338,24.084507 L22.7464789,24.8873239 C24.2878873,23.2816901 24.3119718,22.0480282 24.3119718,22.0480282 L25.2352113,22.9364789 C25.7061912,21.8360603 25.7790529,20.605928 25.4412676,19.4576056 L26.6829577,19.8643662 C26.5571831,17.8359155 25.5723944,16.2088732 24.7829577,15.2133803 Z M15.9519718,21.0685915 C15.6856511,21.0669602 15.4386339,20.9293405 15.2970918,20.7037408 C15.1555497,20.4781411 15.139115,20.1958529 15.2535211,19.9553521 L15.0180282,19.7198592 C14.927102,19.6136839 14.9332153,19.4554128 15.0320605,19.3565676 C15.1309058,19.2577224 15.2891768,19.251609 15.3953521,19.3425352 L15.6308451,19.5780282 C15.9210708,19.4437216 16.2638419,19.4998141 16.4961183,19.7196252 C16.7283947,19.9394364 16.8032898,20.2785958 16.6851797,20.5757813 C16.5670696,20.8729669 16.2797954,21.0681897 15.96,21.0685915 L15.9519718,21.0685915 Z M20.6056338,22.1229577 L19.2676056,23.4609859 L19.2676056,24.7240845 C19.2676056,24.871879 19.1477945,24.9916901 19,24.9916901 C18.8522055,24.9916901 18.7323944,24.871879 18.7323944,24.7240845 L18.7323944,23.4556338 L17.3943662,22.1176056 C17.30344,22.0114303 17.3095533,21.8531593 17.4083986,21.7543141 C17.5072438,21.6554688 17.6655149,21.6493555 17.7716901,21.7402817 L19,22.9659155 L20.2229577,21.7429577 C20.3278919,21.6372847 20.4986227,21.6366856 20.6042958,21.7416197 C20.7099688,21.8465538 20.7105679,22.0172847 20.6056338,22.1229577 Z M23.0515493,19.714507 L22.8160563,19.95 C22.9797313,20.2970944 22.870094,20.7116133 22.5562188,20.9323991 C22.2423436,21.1531848 21.8151624,21.1162744 21.5438102,20.8449222 C21.272458,20.57357 21.2355475,20.1463888 21.4563333,19.8325136 C21.6771191,19.5186384 22.091638,19.4090011 22.4387324,19.5726761 L22.6742254,19.3371831 C22.7804006,19.2462569 22.9386717,19.2523702 23.0375169,19.3512155 C23.1363622,19.4500607 23.1424755,19.6083318 23.0515493,19.714507 Z M23.18,15.6816901 L19,19.8616901 L14.8226761,15.6870423 C14.791604,15.6645748 14.7748785,15.6272372 14.7787999,15.5890943 C14.7827213,15.5509514 14.8066938,15.5177979 14.8416872,15.5021225 C14.8766807,15.486447 14.9173787,15.4906311 14.9484507,15.5130986 L19,17.5388732 L23.0515493,15.5211268 C23.0968899,15.501224 23.1499633,15.5150169 23.1798765,15.5544769 C23.2097897,15.5939368 23.208734,15.6487631 23.1773239,15.6870423 L23.18,15.6816901 Z" id="Shape" fill="#FFFFFF"></path>
            <path d="M23.0515493,15.5211268 L19,17.5388732 L14.9484507,15.5211268 C14.9004175,15.4863951 14.8333233,15.4971781 14.7985915,15.5452113 C14.7638598,15.5932445 14.7746428,15.6603387 14.8226761,15.6950704 L19,19.8616901 L23.1773239,15.6870423 C23.208734,15.6487631 23.2097897,15.5939368 23.1798765,15.5544769 C23.1499633,15.5150169 23.0968899,15.501224 23.0515493,15.5211268 Z" id="Shape" fill="#CDCDCD"></path>
            <path d="M22.2942254,13.3347887 C21.5342254,13.4123944 20.5387324,13.4525352 19.9874648,13.4525352 L17.7556338,13.4525352 C17.2204225,13.4525352 16.3908451,13.4150704 15.7111268,13.3401408 L19,16.6290141 L22.2942254,13.3347887 Z" id="Shape" fill="#CDCDCD"></path>
            <path d="M20.2229577,21.7429577 L19,22.9659155 L17.7770423,21.7429577 C17.6721081,21.6372847 17.5013773,21.6366856 17.3957042,21.7416197 C17.2900312,21.8465538 17.2894321,22.0172847 17.3943662,22.1229577 L18.7323944,23.4609859 L18.7323944,24.7240845 C18.7323944,24.871879 18.8522055,24.9916901 19,24.9916901 C19.1477945,24.9916901 19.2676056,24.871879 19.2676056,24.7240845 L19.2676056,23.4556338 L20.6056338,22.1176056 C20.69656,22.0114303 20.6904467,21.8531593 20.5916014,21.7543141 C20.4927562,21.6554688 20.3344851,21.6493555 20.2283099,21.7402817 L20.2229577,21.7429577 Z M15.9573239,19.5030986 C15.8434367,19.5036203 15.7310601,19.529202 15.628169,19.5780282 L15.3926761,19.3425352 C15.2865008,19.251609 15.1282297,19.2577224 15.0293845,19.3565676 C14.9305393,19.4554128 14.9244259,19.6136839 15.0153521,19.7198592 L15.2508451,19.9553521 C15.1045966,20.2702384 15.1836539,20.6438583 15.4449153,20.8725162 C15.7061767,21.1011741 16.0869778,21.1300258 16.3797078,20.9433413 C16.6724379,20.7566569 16.8068846,20.3992132 16.7097484,20.0658868 C16.6126122,19.7325604 16.3071915,19.5033005 15.96,19.5030986 L15.9573239,19.5030986 Z M23.0488732,19.3425352 C22.944497,19.2387782 22.7759255,19.2387782 22.6715493,19.3425352 L22.4360563,19.5780282 C22.0889619,19.4143532 21.6744431,19.5239905 21.4536573,19.8378657 C21.2328715,20.1517409 21.2697819,20.5789222 21.5411341,20.8502743 C21.8124863,21.1216265 22.2396676,21.158537 22.5535428,20.9377512 C22.8674179,20.7169654 22.9770552,20.3024465 22.8133803,19.9553521 L23.0488732,19.7198592 C23.1526303,19.6154829 23.1526303,19.4469114 23.0488732,19.3425352 Z" id="Shape" fill="#000000"></path>
            <path d="M27.5633803,13.2946479 C27.5688514,13.2430554 27.5688514,13.1910291 27.5633803,13.1394366 L27.5633803,13.0912676 C27.5544532,13.0556453 27.5428232,13.0207555 27.5285915,12.9869014 L27.5098592,12.9440845 C27.4882926,12.899653 27.462292,12.8575141 27.4322535,12.8183099 C27.3976723,12.7738565 27.3581722,12.7334587 27.314507,12.6978873 L24.793662,15.2187324 C25.1848756,15.7105791 25.5272437,16.2393675 25.8159155,16.7976056 C27.2208451,15.9680282 27.5366197,14.3329577 27.5847887,13.3026761 L27.5633803,13.2946479 Z M10.4366197,13.2973239 C10.4847887,14.3276056 10.8005634,15.9733803 12.205493,16.7922535 C12.4941501,16.2340069 12.8365191,15.705217 13.2277465,15.2133803 L10.7042254,12.6925352 C10.5240108,12.8401718 10.4246786,13.0646627 10.4366197,13.2973239 Z" id="Shape" fill="#EAEAEA"></path>
        </g>
    </g>
</svg>