<?xml version="1.0" encoding="UTF-8"?>
<svg width="28px" height="28px" viewBox="0 0 28 28" version="1.1" xmlns="http://www.w3.org/2000/svg" xmlns:xlink="http://www.w3.org/1999/xlink">
    <!-- Generator: Sketch 50.2 (55047) - http://www.bohemiancoding.com/sketch -->
    <title>Filling / Cordova</title>
    <desc>Created with Sketch.</desc>
    <defs></defs>
    <g id="Filling-/-Cordova" stroke="none" stroke-width="1" fill="none" fill-rule="evenodd">
        <path d="M21.0620843,2 L6.88026608,2 L1,11.1670228 L3.36363636,26.2147772 L7.57206208,26.2147772 L7.28381375,22.7555233 L9.35920177,22.7555233 L9.64745011,26.2147772 L18.3525499,26.2147772 L18.6407982,22.7555233 L20.7161863,22.7555233 L20.4279379,26.2147772 L24.6363636,26.2147772 L27,11.1670228 L21.0620843,2 Z M21.0620843,21.0258964 L6.88026608,21.0258964 L5.72727273,11.4552939 L8.09090909,6.61233851 L11.8957871,6.61233851 L11.6651885,8.34196545 L16.3924612,8.34196545 L16.1618625,6.61233851 L19.9667406,6.61233851 L22.3303769,11.4552939 L21.0620843,21.0258964 Z M17.7760532,13.1849209 C18.1219512,13.1849209 18.3525499,14.1650428 18.3525499,15.3757817 C18.3525499,16.5865205 18.0643016,17.5666425 17.7760532,17.5666425 C17.4301552,17.5666425 17.1995565,16.5865205 17.1995565,15.3757817 C17.1995565,14.1650428 17.4878049,13.1849209 17.7760532,13.1849209 Z M10.3392461,13.3578836 C10.6851441,13.3578836 10.9157428,14.3380055 10.9157428,15.5487444 C10.9157428,16.7594832 10.6274945,17.7396052 10.3392461,17.7396052 C9.99334812,17.7396052 9.76274945,16.7594832 9.76274945,15.5487444 C9.76274945,14.3380055 10.0509978,13.3578836 10.3392461,13.3578836 Z" id="Combined-Shape" fill="#292E34" fill-rule="nonzero"></path>
    </g>
</svg>