<?xml version="1.0" encoding="UTF-8"?>
<svg width="28px" height="28px" viewBox="0 0 28 28" version="1.1" xmlns="http://www.w3.org/2000/svg" xmlns:xlink="http://www.w3.org/1999/xlink">
    <!-- Generator: Sketch 50.2 (55047) - http://www.bohemiancoding.com/sketch -->
    <title>Filling / Icon</title>
    <desc>Created with Sketch.</desc>
    <defs>
        <path d="M11.7891402,10.2857116 C13.905711,10.2857116 15.8834248,10.0937116 17.7222815,9.70971174 C19.5611381,9.32571184 21.0119949,8.75885484 22.0748517,8.00914075 L22.0748517,10.2857116 C22.0748517,10.9017114 21.6148519,11.4731398 20.6948521,11.9999968 C19.7748523,12.5268539 18.524567,12.9439966 16.9439959,13.2514251 C15.3634249,13.5588536 13.6445682,13.7131393 11.7874259,13.7142821 C9.9302835,13.715425 8.21142681,13.5611393 6.6308558,13.2514251 C5.05028478,12.9417109 3.7999994,12.5245681 2.87999964,11.9999968 C1.95999988,11.4754256 1.5,10.9039971 1.5,10.2857116 L1.5,8.00914075 C2.56285686,8.75885484 4.01371363,9.32571184 5.85257029,9.70971174 C7.69142695,10.0937116 9.66914071,10.2857116 11.7857116,10.2857116 L11.7891402,10.2857116 Z M11.7891402,20.5714232 C13.905711,20.5714232 15.8834248,20.3794232 17.7222815,19.9954233 C19.5611381,19.6114234 21.0119949,19.0445664 22.0748517,18.2948523 L22.0748517,20.5714232 C22.0748517,21.187423 21.6148519,21.7588514 20.6948521,22.2857084 C19.7748523,22.8125654 18.524567,23.2297082 16.9439959,23.5371367 C15.3634249,23.8445652 13.6445682,23.9988508 11.7874259,23.9999937 C9.9302835,24.0011366 8.21142681,23.8468509 6.6308558,23.5371367 C5.05028478,23.2274225 3.7999994,22.8102797 2.87999964,22.2857084 C1.95999988,21.7611371 1.5,21.1897087 1.5,20.5714232 L1.5,18.2948523 C2.56285686,19.0445664 4.01371363,19.6114234 5.85257029,19.9954233 C7.69142695,20.3794232 9.66914071,20.5714232 11.7857116,20.5714232 L11.7891402,20.5714232 Z M11.7891402,15.4285674 C13.905711,15.4285674 15.8834248,15.2365674 17.7222815,14.8525675 C19.5611381,14.4685676 21.0119949,13.9017106 22.0748517,13.1519965 L22.0748517,15.4285674 C22.0748517,16.0445672 21.6148519,16.6159956 20.6948521,17.1428526 C19.7748523,17.6697096 18.524567,18.0868524 16.9439959,18.3942809 C15.3634249,18.7017094 13.6445682,18.855995 11.7874259,18.8571379 C9.9302835,18.8582808 8.21142681,18.7039951 6.6308558,18.3942809 C5.05028478,18.0845667 3.7999994,17.6674239 2.87999964,17.1428526 C1.95999988,16.6182814 1.5,16.0468529 1.5,15.4285674 L1.5,13.1519965 C2.56285686,13.9017106 4.01371363,14.4685676 5.85257029,14.8525675 C7.69142695,15.2365674 9.66914071,15.4285674 11.7857116,15.4285674 L11.7891402,15.4285674 Z M11.7891402,0 C13.6462825,0 15.3651392,0.154285674 16.9457102,0.462857021 C18.5262812,0.771428369 19.7765666,1.18857112 20.6965664,1.71428526 C21.6165661,2.23999941 22.076566,2.81142783 22.076566,3.42857053 L22.076566,5.14285579 C22.076566,5.75885563 21.6165661,6.33028405 20.6965664,6.85714106 C19.7765666,7.38399806 18.5262812,7.80114081 16.9457102,8.1085693 C15.3651392,8.41599779 13.6462825,8.57028346 11.7891402,8.57142632 C9.93199779,8.57256918 8.21314109,8.4182835 6.63257008,8.1085693 C5.05199907,7.79885509 3.80171368,7.38171235 2.88171392,6.85714106 C1.96171416,6.33256977 1.50171429,5.76114134 1.50171429,5.14285579 L1.50171429,3.42857053 C1.50171429,2.81257069 1.96171416,2.24114227 2.88171392,1.71428526 C3.80171368,1.18742826 5.05199907,0.770285512 6.63257008,0.462857021 C8.21314109,0.155428531 9.93199779,0.00114285684 11.7891402,0 Z" id="path-1"></path>
    </defs>
    <g id="Filling-/-Icon" stroke="none" stroke-width="1" fill="none" fill-rule="evenodd">
        <g id="Icons-/-Object-/-fa-database" transform="translate(2.000000, 2.000000)">
            <mask id="mask-2" fill="white">
                <use xlink:href="#path-1"></use>
            </mask>
            <use id="Mask" fill="#000000" fill-rule="nonzero" xlink:href="#path-1"></use>
            <g id="Colors-/-8.-Dark" mask="url(#mask-2)" fill="#292E34" fill-rule="evenodd" stroke="#292E34" stroke-width="1">
                <g id="Colors-/-Greyscale-/-pf-black-900">
                    <rect id="pf-black-900" x="0.5" y="0.5" width="23" height="23"></rect>
                </g>
            </g>
        </g>
    </g>
</svg>