<?xml version="1.0" encoding="UTF-8"?>
<svg width="28px" height="28px" viewBox="0 0 28 28" version="1.1" xmlns="http://www.w3.org/2000/svg" xmlns:xlink="http://www.w3.org/1999/xlink">
    <!-- Generator: Sketch 50.2 (55047) - http://www.bohemiancoding.com/sketch -->
    <title>Filling / Route</title>
    <desc>Created with Sketch.</desc>
    <defs>
        <path d="M24.0908246,11.9511187 L13.7767893,11.9787379 L13.7767893,8.51080534 L14.6450671,8.51080534 L16.4144204,6.80014274 L13.7767893,6.80014274 L13.7767893,3.547985 C13.7975037,3.547985 13.8251228,3.55316359 13.8475634,3.55316359 C14.4310185,3.98471319 14.9592352,4.48703691 15.4339397,5.04805139 C15.8499535,5.53829173 16.2210862,6.08377042 16.5507901,6.66549927 L18.0180587,5.2465642 C17.9472846,5.12745651 17.8782366,5.01007502 17.8022839,4.89096734 C17.9213916,4.96174147 18.0387731,5.035968 18.1527022,5.11709932 L19.4369938,3.87596269 L19.5129465,3.76203359 C19.2056832,3.5410802 18.8811579,3.330484 18.5480016,3.13024499 C16.8321604,2.12732373 14.9557828,1.625 12.9223211,1.625 C10.8888594,1.625 9.01075554,2.12732373 7.29664055,3.13024499 C5.58079936,4.13316625 4.22228124,5.49341057 3.21935998,7.20752556 C2.21643872,8.93372394 1.71411499,10.8118278 1.71411499,12.8452895 C1.71411499,13.137017 1.72447218,13.4218397 1.74691276,13.7032101 L12.0713053,13.6876743 L12.0713053,17.1556068 L11.2306467,17.1556068 L9.46129332,18.8662694 L12.0730315,18.8662694 L12.0730315,22.1460463 C12.0454123,22.1460463 12.0143407,22.1408677 11.9867216,22.1408677 C11.4257071,21.7144967 10.9130262,21.229435 10.4486788,20.6787777 C10.0223078,20.176454 9.64427035,19.6223443 9.30593547,19.0181749 L7.83866684,20.4371099 C7.91461957,20.5665748 7.9888461,20.6908611 8.06479883,20.8151474 C7.94051255,20.7391947 7.81622626,20.6580633 7.69193998,20.5786582 L6.31098128,21.9112834 C6.62342318,22.1374153 6.95312707,22.3531901 7.29836675,22.5534292 C9.01420794,23.5563504 10.8905856,24.0586741 12.9240473,24.0586741 C14.957509,24.0586741 16.8356128,23.5563504 18.5497278,22.5534292 C20.265569,21.5505079 21.6240871,20.1902636 22.6270084,18.4744224 C23.6299296,16.7585812 24.1322534,14.8822036 24.1322534,12.8487419 C24.1270748,12.5466572 24.1167176,12.249751 24.094277,11.9528449 L24.0908246,11.9511187 Z M5.8569911,11.9787379 L3.6181118,11.9787379 C3.70442172,11.0241502 3.9409109,10.1075388 4.31894835,9.22199907 C4.42597265,8.9786051 4.53990174,8.74211592 4.65900943,8.51080534 L6.43354136,8.51080534 C6.11074227,9.6172985 5.92086044,10.7773038 5.8569911,11.9787379 Z M7.05497278,6.80014274 L5.80347895,6.80014274 C5.9657416,6.60508233 6.13836144,6.4221053 6.31615987,6.24430686 C6.83919798,5.72126876 7.42265303,5.26727858 8.06997743,4.87888395 C7.81104767,5.29489776 7.5676537,5.72644735 7.34152171,6.17871133 C7.23967601,6.38412893 7.1412827,6.58782034 7.05497278,6.79841654 L7.05497278,6.80014274 Z M12.0661267,11.9787379 L7.73509494,11.9787379 C7.81104767,10.7911134 8.05271544,9.64837007 8.45319347,8.5539603 C8.45837206,8.53842451 8.46355066,8.52634112 8.46872925,8.51080534 L12.0661267,8.51080534 L12.0661267,11.9787379 Z M12.0661267,6.80014274 L9.23343513,6.80014274 C9.58385341,6.15281835 9.98951003,5.55900611 10.441774,5.02043221 C10.9061214,4.46977493 11.4239809,3.97953459 11.9901739,3.55316359 C12.0177931,3.55316359 12.0385075,3.547985 12.0661267,3.547985 L12.0661267,6.80014274 Z M15.4322135,20.7063969 C14.9851281,21.2397922 14.487983,21.7144967 13.9425043,22.1305106 C13.8889922,22.1356892 13.8285752,22.1408677 13.7750631,22.1460463 L13.7750631,18.8662694 L16.671624,18.8662694 C16.3108485,19.541213 15.8948347,20.150561 15.4304873,20.7063969 L15.4322135,20.7063969 Z M13.7767893,17.157333 L13.7767893,13.6894005 L18.1457974,13.6894005 C18.0698446,14.8925607 17.8333555,16.0473875 17.4346036,17.157333 L13.7767893,17.157333 Z M19.5215775,19.4497245 C19.0244323,19.9468696 18.4703227,20.3835978 17.8609746,20.759909 C18.0974638,20.3715144 18.325322,19.9727626 18.5307396,19.5463916 C18.6446687,19.3202596 18.7465144,19.0941276 18.8431815,18.8610908 L20.056699,18.8610908 C19.8892577,19.0665084 19.7114593,19.2650212 19.5233037,19.4497245 L19.5215775,19.4497245 Z M21.5118842,16.4720323 C21.4100385,16.7085214 21.301288,16.9363796 21.1890851,17.157333 L19.4525295,17.157333 C19.77015,16.0508399 19.9548533,14.8908346 20.013544,13.6894005 L22.2196255,13.6894005 C22.1333156,14.6491668 21.902005,15.5778615 21.5136104,16.4737585 L21.5118842,16.4720323 Z M7.01181782,18.0411466 L3.46275395,14.573214 L3.46275395,17.157333 L0,17.157333 L0,18.8835314 L3.46275395,18.8835314 L3.46275395,21.472829 L7.01181782,18.0411466 Z M26,7.68395631 L22.4509361,4.21602377 L22.4509361,6.80014274 L18.9881822,6.80014274 L18.9881822,8.52634112 L22.4509361,8.52634112 L22.4509361,11.1156387 L26,7.68395631 Z" id="path-1"></path>
    </defs>
    <g id="Filling-/-Route" stroke="none" stroke-width="1" fill="none" fill-rule="evenodd">
        <g id="Icons-/-Object-/-pficon-route" transform="translate(1.000000, 1.000000)">
            <mask id="mask-2" fill="white">
                <use xlink:href="#path-1"></use>
            </mask>
            <use id="Mask" fill="#000000" fill-rule="nonzero" xlink:href="#path-1"></use>
            <g id="Colors-/-8.-Dark" mask="url(#mask-2)" fill="#292E34" fill-rule="evenodd" stroke="#292E34" stroke-width="1">
                <g id="Colors-/-Greyscale-/-pf-black-900">
                    <rect id="pf-black-900" x="0.5" y="0.5" width="25" height="25"></rect>
                </g>
            </g>
        </g>
    </g>
</svg>